<svg xmlns="http://www.w3.org/2000/svg" viewBox="0 0 500 500"><g id="freepik--background-complete--inject-85"><ellipse cx="270.37" cy="462.34" rx="95.18" ry="17.36" style="fill:#f5f5f5"></ellipse><path d="M346.36,461.35a2.62,2.62,0,0,0-.21-.78,4.55,4.55,0,0,0-1.67-1.66,30.14,30.14,0,0,0-8.6-3.17c-7.77-1.93-19.29-3.49-33.58-4.46a497.52,497.52,0,0,0-50.28-.73c-9.46.34-19.39.94-29.62,2.11-5.12.59-10.31,1.32-15.51,2.39a69.94,69.94,0,0,0-7.74,2,23.22,23.22,0,0,0-3.7,1.57,8,8,0,0,0-1.61,1.12,2.34,2.34,0,0,0-.85,1.57,2.29,2.29,0,0,0,.84,1.58,8,8,0,0,0,1.61,1.13,23.46,23.46,0,0,0,3.69,1.56,68.56,68.56,0,0,0,7.75,2c5.2,1.07,10.4,1.8,15.51,2.4,10.24,1.16,20.17,1.76,29.63,2.1a497.72,497.72,0,0,0,50.29-.73c14.28-1,25.8-2.53,33.58-4.45a30.44,30.44,0,0,0,8.59-3.18,4.48,4.48,0,0,0,1.67-1.66,2.54,2.54,0,0,0,.21-.78,1.61,1.61,0,0,1-.16.8,4.44,4.44,0,0,1-1.66,1.72,29.11,29.11,0,0,1-8.6,3.29c-7.78,2-19.31,3.61-33.61,4.63a492.66,492.66,0,0,1-50.33.84c-9.47-.32-19.41-.91-29.67-2.08-5.12-.59-10.33-1.32-15.56-2.4a65.84,65.84,0,0,1-7.8-2,23.21,23.21,0,0,1-3.78-1.61,8.06,8.06,0,0,1-1.72-1.2,2.4,2.4,0,0,1,0-3.91,9.5,9.5,0,0,1,1.72-1.2,23.16,23.16,0,0,1,3.78-1.6,65.84,65.84,0,0,1,7.8-2c5.23-1.08,10.43-1.81,15.56-2.4,10.25-1.16,20.19-1.75,29.66-2.08a492.66,492.66,0,0,1,50.33.84c14.29,1,25.82,2.64,33.6,4.63a29.88,29.88,0,0,1,8.61,3.29,4.44,4.44,0,0,1,1.66,1.72A1.61,1.61,0,0,1,346.36,461.35Z" style="fill:#ebebeb"></path><path d="M319,460.55a2,2,0,0,0-.15-.48,2.63,2.63,0,0,0-1.05-1,19.15,19.15,0,0,0-5.44-2,132.87,132.87,0,0,0-21.26-2.8c-9-.59-19.85-.85-31.83-.43-6,.21-12.27.59-18.74,1.33-3.24.38-6.53.84-9.81,1.52a45.63,45.63,0,0,0-4.89,1.28,14.56,14.56,0,0,0-2.33,1c-.7.38-1.47.94-1.51,1.62s.8,1.24,1.51,1.63a14,14,0,0,0,2.32,1,41.87,41.87,0,0,0,4.89,1.28c3.29.69,6.58,1.15,9.81,1.53,6.48.74,12.76,1.11,18.75,1.33,12,.42,22.79.16,31.83-.43a132.7,132.7,0,0,0,21.26-2.8,19.15,19.15,0,0,0,5.44-2,2.63,2.63,0,0,0,1.05-1,1.87,1.87,0,0,0,.15-.49,1.24,1.24,0,0,1-.1.51,2.67,2.67,0,0,1-1,1.11,18.81,18.81,0,0,1-5.45,2.1,127.9,127.9,0,0,1-21.28,3,306.41,306.41,0,0,1-31.87.55c-6-.2-12.3-.57-18.8-1.31-3.24-.37-6.54-.83-9.86-1.52a44.52,44.52,0,0,1-4.95-1.29,15.32,15.32,0,0,1-2.41-1,6.15,6.15,0,0,1-1.11-.77,1.61,1.61,0,0,1,0-2.61,6.37,6.37,0,0,1,1.11-.78,15.82,15.82,0,0,1,2.41-1,42.43,42.43,0,0,1,5-1.29c3.31-.69,6.61-1.15,9.86-1.52,6.49-.74,12.79-1.11,18.79-1.31a306.53,306.53,0,0,1,31.87.55,127.9,127.9,0,0,1,21.28,3,18.93,18.93,0,0,1,5.45,2.1,2.67,2.67,0,0,1,1,1.11A1.23,1.23,0,0,1,319,460.55Z" style="fill:#ebebeb"></path><path d="M296.91,460.55a1.13,1.13,0,0,0-.61-.74,9.8,9.8,0,0,0-2.72-1A68.45,68.45,0,0,0,283,457.48c-4.51-.28-9.92-.4-15.9-.19-3,.12-6.13.31-9.36.68-1.62.19-3.26.42-4.9.76a21.23,21.23,0,0,0-2.43.64,6.29,6.29,0,0,0-1.13.48c-.35.18-.69.47-.7.7s.34.51.69.7a8.29,8.29,0,0,0,1.14.48,22.25,22.25,0,0,0,2.43.64c1.64.34,3.28.57,4.9.76,3.23.37,6.37.56,9.36.67,6,.22,11.39.1,15.91-.19a68.68,68.68,0,0,0,10.62-1.35,10.14,10.14,0,0,0,2.72-1,1.15,1.15,0,0,0,.61-.74.41.41,0,0,1,0,.26,1.32,1.32,0,0,1-.52.57,8.91,8.91,0,0,1-2.72,1.07A62.19,62.19,0,0,1,283,464a154.24,154.24,0,0,1-16,.3c-3-.1-6.15-.28-9.4-.65-1.63-.18-3.28-.41-4.94-.76a20.43,20.43,0,0,1-2.5-.65,6.78,6.78,0,0,1-1.22-.52,1.57,1.57,0,0,1-1-1.16c.08-.67.6-.92,1-1.15a8.71,8.71,0,0,1,1.23-.52,24.65,24.65,0,0,1,2.49-.65c1.66-.34,3.31-.57,4.94-.76,3.25-.37,6.4-.55,9.4-.65a151.23,151.23,0,0,1,16,.31,63.38,63.38,0,0,1,10.65,1.52,9.14,9.14,0,0,1,2.72,1.08,1.26,1.26,0,0,1,.52.57A.41.41,0,0,1,296.91,460.55Z" style="fill:#ebebeb"></path><rect x="30.7" y="129.37" width="30.2" height="11.94" style="fill:#f5f5f5"></rect><path d="M48.84,153.07a.72.72,0,0,1,0-.21c0-.16,0-.37,0-.62,0-.56,0-1.34,0-2.35,0-2.06,0-5-.07-8.76l.12.14-37.26.09.19-.23h0v11.92l-.19-.22,26.55.1L46,153l2.12,0,.55,0h.2s-.06,0-.17,0h-.54l-2.08,0-7.79.07-26.68.1h-.19V141.15h0c.38-.46.11-.12.19-.23l37.26.09H49v.14c0,3.77-.05,6.77-.06,8.85,0,1,0,1.76,0,2.32,0,.24,0,.43,0,.58A1.14,1.14,0,0,1,48.84,153.07Z" style="fill:#e0e0e0"></path><rect x="293.65" y="391.61" width="48.65" height="12.87" style="fill:#ebebeb"></rect><path d="M321.73,418s0-.09,0-.24l0-.66c0-.6,0-1.45,0-2.53,0-2.22,0-5.42-.08-9.45l.15.16-48.65.09.25-.25h0v6.53c0,2.15,0,4.27,0,6.34l-.24-.25,34.67.11L318,418l2.77,0,.73,0a.72.72,0,0,1,.25,0h-.22l-.7,0-2.71,0-10.18.07-34.84.11h-.24V418c0-2.07,0-4.19,0-6.34v-6.53h0l.25-.24,48.65.09h.15v.15c0,4.07-.06,7.29-.08,9.54,0,1.07,0,1.9,0,2.5,0,.26,0,.47,0,.63A.85.85,0,0,1,321.73,418Z" style="fill:#e0e0e0"></path><rect x="203.36" y="133.89" width="48.65" height="12.87" style="fill:#f5f5f5"></rect><path d="M231.44,160.32s0-.08,0-.23l0-.66c0-.61,0-1.46,0-2.54,0-2.22,0-5.41-.09-9.44l.15.15-48.64.1c.1-.11-.25.24.24-.25h0V154q0,3.22,0,6.33l-.24-.24,34.67.11,10.24.07,2.76,0h.73l.25,0-.22,0h-.69l-2.72,0-10.18.07-34.84.11h-.24V154c0-1.08,0-2.16,0-3.25v-3.27h0c.5-.5.14-.14.26-.25l48.64.1h.16v.15c0,4.06-.07,7.29-.09,9.53,0,1.07,0,1.9,0,2.5,0,.26,0,.47,0,.63S231.45,160.32,231.44,160.32Z" style="fill:#e0e0e0"></path><path d="M346.72,46.3a1.35,1.35,0,0,1,0-.24l0-.66c0-.6,0-1.45,0-2.53,0-2.22,0-5.42-.09-9.45l.15.16-48.64.09.24-.24h0V40c0,2.15,0,4.27,0,6.34l-.24-.25,34.67.11,10.24.07,2.76,0,.73,0,.26,0h-.23l-.69,0-2.72,0-10.18.07-34.84.11h-.24V40c0-1.07,0-2.15,0-3.24V33.43h0c.5-.5.14-.14.26-.25l48.64.09h.16v.15c0,4.07-.07,7.3-.09,9.54,0,1.07,0,1.9,0,2.5,0,.26,0,.47,0,.63A1.66,1.66,0,0,1,346.72,46.3Z" style="fill:#e0e0e0"></path><rect x="431.4" y="194.06" width="48.65" height="12.87" style="fill:#f5f5f5"></rect><path d="M467,220.49a2.07,2.07,0,0,1,0-.23l0-.66c0-.61,0-1.45,0-2.54,0-2.22-.05-5.41-.09-9.44l.15.15-48.65.1.25-.25h0v6.52c0,2.15,0,4.26,0,6.33l-.24-.24,34.67.11,10.24.07,2.76,0,.73,0H467s-.07,0-.22,0h-.7l-2.71,0-10.18.07-34.84.11h-.24v-.24c0-2.07,0-4.18,0-6.33v-6.52h0l.25-.25,48.65.1h.15v.15c0,4.07-.06,7.29-.08,9.53,0,1.07,0,1.91,0,2.5,0,.26,0,.47,0,.64S467,220.5,467,220.49Z" style="fill:#e0e0e0"></path><rect x="81.05" y="60.21" width="90.77" height="150.26" style="fill:#e0e0e0"></rect><rect x="78.03" y="60.21" width="90.77" height="150.26" style="fill:#ebebeb"></rect><rect x="81.9" y="63.26" width="83.04" height="144.16" style="fill:#fff"></rect><rect x="97.71" y="81.99" width="51.06" height="106.7" style="fill:#ebebeb"></rect><path d="M97.71,150.93c-.12-10,8.84-19.69,18.71-21.08,4.71-.67,9.71.27,14.1-1.54,7.85-3.22,10.35-13.64,18.25-16.74l.36,77.12H97.71Z" style="fill:#e0e0e0"></path><path d="M147.21,39.39a1.35,1.35,0,0,1,0-.24v-.66c0-.6,0-1.45,0-2.53,0-2.22,0-5.42-.08-9.44l.15.15-48.65.09.24-.24h0V39.39l-.24-.25,34.67.11,10.23.07,2.77,0H147l.26,0H147l-.69,0-2.72,0-10.17.07-34.84.11h-.25V26.54h0c.49-.5.14-.14.25-.25l48.65.09h.15v.16c0,4.06-.06,7.29-.08,9.53,0,1.07,0,1.9,0,2.5l0,.63A1.66,1.66,0,0,1,147.21,39.39Z" style="fill:#e0e0e0"></path><path d="M153.81,26.52a.77.77,0,0,1,0-.25c0-.18,0-.41,0-.68,0-.64,0-1.5-.05-2.58,0-2.26-.05-5.45-.09-9.37l.17.18-29.23.07c-.22.22.3-.3.25-.24h0v6.6c0,2.16,0,4.25,0,6.25l-.24-.24,20.91.11,6.1.07,1.64,0,.59,0s-.18,0-.54,0l-1.59,0-6,.07-21.07.11h-.23v-.23c0-2,0-4.09,0-6.25v-6.6h0l.25-.25,29.23.07H154v.17c0,4-.07,7.19-.09,9.48,0,1.07,0,1.91,0,2.54S153.82,26.53,153.81,26.52Z" style="fill:#e0e0e0"></path><path d="M476.07,118.33a1.33,1.33,0,0,1,0-.26c0-.19,0-.43,0-.73,0-.67,0-1.61,0-2.81,0-2.47-.06-6-.1-10.49l.17.17-54,.11c.12-.13-.28.27.27-.28h0v14.28l-.27-.27,38.5.12,11.36.08,3.07,0h.81l.28,0a1,1,0,0,1-.25,0l-.77,0-3,0-11.3.08-38.68.12h-.27v-.27q0-3.45,0-7v-7.25h0c.55-.55.16-.15.28-.27l54,.1h.17V104c0,4.51-.07,8.1-.09,10.59,0,1.18,0,2.11,0,2.77,0,.29,0,.52,0,.7S476.08,118.34,476.07,118.33Z" style="fill:#e0e0e0"></path><path d="M483.4,104a1.13,1.13,0,0,1,0-.27c0-.21,0-.46,0-.76,0-.7,0-1.66-.05-2.86,0-2.51-.06-6.05-.1-10.4l.19.2L450.94,90l.27-.27h0v7.35c0,2.39,0,4.71,0,6.93l-.26-.26,23.22.12,6.76.08,1.82,0,.66,0a4.26,4.26,0,0,1-.59,0l-1.77,0-6.71.07-23.39.12h-.26V104c0-2.22,0-4.54,0-6.93V89.76h0l.28-.28,32.45.08h.2v.2c0,4.4-.08,8-.1,10.52,0,1.18,0,2.12-.05,2.82S483.41,104.05,483.4,104Z" style="fill:#e0e0e0"></path></g><g id="freepik--Floor--inject-85"><path d="M467.54,435c0,.14-97,.26-216.53.26S34.46,435.16,34.46,435s96.94-.26,216.55-.26S467.54,434.87,467.54,435Z" style="fill:#263238"></path></g><g id="freepik--Device--inject-85"><rect x="204.15" y="38.17" width="235.11" height="337.4" rx="10.49" style="fill:#263238"></rect><path d="M428.76,375.57l.73-.05a5.74,5.74,0,0,0,.9-.11,9.4,9.4,0,0,0,1.24-.27,10.53,10.53,0,0,0,6.4-5.25,11.19,11.19,0,0,0,1-2.79,16.68,16.68,0,0,0,.2-3.29c0-2.31,0-4.85,0-7.59,0-5.49,0-11.82,0-19,0-28.52,0-69.78-.07-120.76,0-25.5,0-53.42,0-83.4q0-22.49,0-46.45,0-12,0-24.3V50a15.79,15.79,0,0,0-.17-3.08,9.85,9.85,0,0,0-1-2.89,10.34,10.34,0,0,0-4.23-4.36,11.65,11.65,0,0,0-2.91-1.05,15.35,15.35,0,0,0-3.12-.19h-213a10.23,10.23,0,0,0-10.1,8.35,18.29,18.29,0,0,0-.19,3.57v95.41c0,36.68,0,72.07,0,105.78s0,65.75,0,95.72v16.65a17.22,17.22,0,0,0,.12,2.7,10.5,10.5,0,0,0,.72,2.56,10.31,10.31,0,0,0,8,6.12,17.64,17.64,0,0,0,2.63.11h47.9l120.75.08,32.83,0,8.54,0,2.91,0-2.91,0-8.54,0-32.83,0-120.75.08h-47.9a18.6,18.6,0,0,1-2.68-.11,10.63,10.63,0,0,1-9.07-9,17,17,0,0,1-.12-2.75c0-1.83,0-3.66,0-5.5V347.24c0-30,0-62,0-95.72s0-69.1,0-105.78q0-27.53,0-56V50.33a19.62,19.62,0,0,1,.19-3.66,10.74,10.74,0,0,1,10.57-8.74h213a16.45,16.45,0,0,1,3.2.21,11.2,11.2,0,0,1,3,1.09,10.87,10.87,0,0,1,4.42,4.54,10.44,10.44,0,0,1,1,3,16.74,16.74,0,0,1,.17,3.15v12.4q0,12.31,0,24.3,0,23.94,0,46.45c0,30,0,57.9,0,83.4,0,51-.05,92.24-.07,120.76,0,7.13,0,13.46,0,19,0,2.74,0,5.28,0,7.59a16.19,16.19,0,0,1-.2,3.31,11.23,11.23,0,0,1-1,2.81,10.61,10.61,0,0,1-3.24,3.71,10.24,10.24,0,0,1-3.23,1.54,8.28,8.28,0,0,1-1.24.27,7.1,7.1,0,0,1-.91.09Z" style="fill:#263238"></path><circle cx="321.7" cy="358.61" r="9.02" transform="translate(-159.35 332.51) rotate(-45)" style="fill:#455a64"></circle><path d="M345.79,56h-48a3.34,3.34,0,0,1-3.34-3.35h0a3.34,3.34,0,0,1,3.34-3.35h48a3.35,3.35,0,0,1,3.35,3.35h0A3.35,3.35,0,0,1,345.79,56Z" style="fill:#455a64"></path><rect x="211.36" y="62.24" width="220.28" height="281.77" style="fill:#fff"></rect><rect x="247.12" y="195.36" width="148.82" height="25.71" rx="1.45" style="fill:#f5f5f5"></rect><path d="M394.49,221.07a1.7,1.7,0,0,0,.83-.29,1.43,1.43,0,0,0,.56-.89,14.8,14.8,0,0,0,0-1.51c0-2.32,0-5.72-.05-10.1,0-2.19,0-4.63,0-7.29,0-1.34,0-2.73,0-4.18a1.32,1.32,0,0,0-1.26-1.3h-2.29l-21.15,0-122.52.07a1.2,1.2,0,0,0-1.2,1.15v22c0,.34,0,.76,0,1a1.19,1.19,0,0,0,1.27,1h40l55.08.06,37.14.08L391,221l2.63,0,.89,0-.89,0-2.63,0-10.09,0-37.14.09-55.08.05-32.53,0h-7.46a1.73,1.73,0,0,1-1.16-.38,1.68,1.68,0,0,1-.62-1.07,10.74,10.74,0,0,1,0-1.12v-6.51c0-2.92,0-5.85,0-8.81v-6.68a1.72,1.72,0,0,1,1.72-1.66l122.52.08,21.15,0h2.31a1.59,1.59,0,0,1,1.51,1.58c0,1.45,0,2.84,0,4.18,0,2.66,0,5.1,0,7.29,0,4.38,0,7.78-.05,10.1,0,.58,0,1.08,0,1.53a1.56,1.56,0,0,1-.61.92,1.43,1.43,0,0,1-.63.24A1.34,1.34,0,0,1,394.49,221.07Z" style="fill:#263238"></path><rect x="247.27" y="230.67" width="148.82" height="25.71" rx="1.45" style="fill:#f5f5f5"></rect><path d="M394.64,256.38a1.68,1.68,0,0,0,.82-.29,1.45,1.45,0,0,0,.56-.89,14.55,14.55,0,0,0,0-1.51c0-2.32,0-5.72-.05-10.1,0-2.19,0-4.63,0-7.3,0-1.33,0-2.72,0-4.17a1.34,1.34,0,0,0-1.26-1.31h-2.29l-21.16,0-122.52.08a1.2,1.2,0,0,0-1.2,1.15v22c0,.34,0,.76,0,1a1.26,1.26,0,0,0,.44.75,1.21,1.21,0,0,0,.84.26h7.46l32.53,0,55.08.05,37.13.09,10.1.05,2.62,0,.9,0-.9,0-2.62,0-10.1.05-37.13.08-55.08.06h-40a1.75,1.75,0,0,1-1.17-.38,1.73,1.73,0,0,1-.62-1.07c0-.44,0-.74,0-1.12v-22a1.73,1.73,0,0,1,1.72-1.65l122.52.08,21.16,0h2.3a1.61,1.61,0,0,1,1.52,1.59c0,1.45,0,2.84,0,4.17,0,2.67,0,5.11,0,7.3,0,4.38,0,7.78-.05,10.1a14.58,14.58,0,0,1,0,1.53,1.46,1.46,0,0,1-1.24,1.15A.91.91,0,0,1,394.64,256.38Z" style="fill:#263238"></path><path d="M262.48,204.67v5.94h-.7l-3.56-4.43v4.43h-.85v-5.94h.7l3.56,4.43v-4.43Z" style="fill:#263238"></path><path d="M267.71,207.89v2.72h-.77V210a1.68,1.68,0,0,1-1.48.65c-1,0-1.66-.55-1.66-1.33s.46-1.31,1.81-1.31h1.28v-.16c0-.69-.39-1.09-1.2-1.09a2.32,2.32,0,0,0-1.43.48l-.33-.61a3,3,0,0,1,1.85-.57C267,206.07,267.71,206.66,267.71,207.89Zm-.82,1.34v-.63h-1.25c-.81,0-1,.32-1,.7s.38.73,1,.73A1.29,1.29,0,0,0,266.89,209.23Z" style="fill:#263238"></path><path d="M276.69,208v2.59h-.82v-2.5c0-.88-.42-1.31-1.16-1.31a1.3,1.3,0,0,0-1.35,1.49v2.32h-.81v-2.5c0-.88-.43-1.31-1.16-1.31s-1.35.51-1.35,1.49v2.32h-.82v-4.5H270v.67a1.83,1.83,0,0,1,1.56-.71,1.67,1.67,0,0,1,1.56.83,2,2,0,0,1,1.73-.83A1.72,1.72,0,0,1,276.69,208Z" style="fill:#263238"></path><path d="M282.27,208.63h-3.65a1.52,1.52,0,0,0,1.63,1.31,1.68,1.68,0,0,0,1.3-.54l.45.53a2.29,2.29,0,0,1-1.78.73,2.25,2.25,0,0,1-2.42-2.3,2.2,2.2,0,0,1,2.26-2.29,2.34,2.34,0,0,1,2.21,2.56Zm-3.65-.59h2.88a1.45,1.45,0,0,0-2.88,0Z" style="fill:#263238"></path><rect x="247.5" y="270.49" width="148.82" height="25.71" rx="1.45" style="fill:#FF725E"></rect><path d="M308.48,280.56h1.68v4.62H313v1.33h-4.52Z" style="fill:#fff"></path><path d="M313.27,284.2a2.61,2.61,0,1,1,2.6,2.39A2.4,2.4,0,0,1,313.27,284.2Zm3.57,0a1,1,0,0,0-1-1.09,1,1,0,0,0-1,1.09,1,1,0,0,0,1,1.11A1,1,0,0,0,316.84,284.2Z" style="fill:#fff"></path><path d="M324.17,281.91v3.76c0,1.74-1,2.57-2.7,2.57a4.06,4.06,0,0,1-2.29-.61l.59-1.13a2.64,2.64,0,0,0,1.56.5c.86,0,1.23-.39,1.23-1.12v-.15a1.71,1.71,0,0,1-1.37.54,2.22,2.22,0,1,1,0-4.44,1.67,1.67,0,0,1,1.45.64v-.56Zm-1.59,2.14a1,1,0,1,0-1,.94A.94.94,0,0,0,322.58,284.05Z" style="fill:#fff"></path><path d="M327.75,280.56h1.69v5.95h-1.69Z" style="fill:#fff"></path><path d="M335.46,283.88v2.63h-1.61v-2.37c0-.66-.29-.94-.76-.94s-.92.32-.92,1.09v2.22h-1.61v-4.6h1.53v.5a2,2,0,0,1,1.47-.58A1.8,1.8,0,0,1,335.46,283.88Z" style="fill:#fff"></path><path d="M258.86,243.68a2.24,2.24,0,1,1-2.23-2.24A2.23,2.23,0,0,1,258.86,243.68Z" style="fill:#263238"></path><path d="M265.9,243.68a2.24,2.24,0,1,1-2.24-2.24A2.24,2.24,0,0,1,265.9,243.68Z" style="fill:#263238"></path><path d="M272.93,243.68a2.24,2.24,0,1,1-2.23-2.24A2.23,2.23,0,0,1,272.93,243.68Z" style="fill:#263238"></path><path d="M280,243.68a2.24,2.24,0,1,1-2.24-2.24A2.24,2.24,0,0,1,280,243.68Z" style="fill:#263238"></path><path d="M287,243.68a2.24,2.24,0,1,1-2.24-2.24A2.24,2.24,0,0,1,287,243.68Z" style="fill:#263238"></path><path d="M294,243.68a2.24,2.24,0,1,1-2.24-2.24A2.24,2.24,0,0,1,294,243.68Z" style="fill:#263238"></path><path d="M301.08,243.68a2.24,2.24,0,1,1-2.24-2.24A2.24,2.24,0,0,1,301.08,243.68Z" style="fill:#263238"></path><path d="M308.11,243.68a2.24,2.24,0,1,1-2.23-2.24A2.23,2.23,0,0,1,308.11,243.68Z" style="fill:#263238"></path><path d="M384.49,242.05h-.58v-.82a2.77,2.77,0,0,0-5.54,0v.82h-.84a1,1,0,0,0-1,1v4.5a1,1,0,0,0,1,1h7a1,1,0,0,0,1-1v-4.5A1,1,0,0,0,384.49,242.05Zm-2.42,5.08H380l.55-1.38a1.13,1.13,0,0,1-.65-1,1.16,1.16,0,0,1,2.31,0,1.17,1.17,0,0,1-.66,1Zm1-5.08h-3.86v-.82a1.93,1.93,0,0,1,3.86,0Z" style="fill:#e0e0e0"></path><circle cx="321.91" cy="137.26" r="44.48" style="fill:#fafafa"></circle><path d="M366.39,137.26s0-.24-.06-.72-.07-1.19-.13-2.11c0-.47-.06-1-.09-1.55s-.18-1.19-.28-1.86-.22-1.4-.34-2.17-.39-1.57-.58-2.42A42.58,42.58,0,0,0,360,114.62a44,44,0,0,0-11.27-12.57l-1.91-1.43c-.67-.44-1.38-.84-2.08-1.27s-1.39-.9-2.16-1.25l-2.3-1.1-1.17-.56L337.86,96l-2.49-.9c-.85-.28-1.73-.46-2.61-.7a23.21,23.21,0,0,0-2.68-.61,41,41,0,0,0-5.59-.65c-1,0-1.92-.12-2.89-.11l-2.93.15c-.49,0-1,0-1.47.1l-1.48.23c-1,.16-2,.27-3,.48a48.13,48.13,0,0,0-11.67,4.27c-.93.5-1.83,1.09-2.75,1.64-.45.29-.94.54-1.37.87l-1.3,1a50.28,50.28,0,0,0-5,4.26c-.74.83-1.49,1.65-2.24,2.48l-.57.62-.51.68-1,1.35-1,1.36-.89,1.46-.89,1.46-.44.74-.38.77q-.75,1.55-1.5,3.12L280,123.3a43.76,43.76,0,0,0,0,27.91l1.2,3.28c.51,1,1,2.08,1.51,3.12l.37.77.45.74.89,1.46.89,1.46,1,1.36,1,1.35.51.68.56.62,2.25,2.48a50.28,50.28,0,0,0,5,4.26l1.3,1c.43.32.92.57,1.37.86.92.55,1.82,1.14,2.75,1.65a48.66,48.66,0,0,0,11.67,4.26c1,.21,2,.32,3,.49l1.48.22c.49.07,1,.07,1.48.1l2.92.15c1,0,1.93-.08,2.89-.11a41,41,0,0,0,5.6-.65,22.13,22.13,0,0,0,2.68-.61c.87-.23,1.76-.41,2.6-.69l2.49-.91,1.23-.45,1.17-.55,2.3-1.11c.77-.35,1.45-.84,2.16-1.25s1.41-.83,2.08-1.27l1.92-1.43A44.08,44.08,0,0,0,360,159.9a42.66,42.66,0,0,0,4.93-11.8c.2-.86.48-1.65.58-2.43s.23-1.49.34-2.16.22-1.29.28-1.86.06-1.09.09-1.56c.06-.91.1-1.62.13-2.11s.06-.72.06-.72,0,.25,0,.72,0,1.2-.08,2.12q0,.71-.06,1.56c-.05.57-.17,1.19-.26,1.87s-.2,1.4-.32,2.17a21.23,21.23,0,0,1-.56,2.45,42,42,0,0,1-4.87,11.9,44.15,44.15,0,0,1-11.29,12.71L347,174.21c-.67.45-1.39.86-2.09,1.29a23.41,23.41,0,0,1-2.18,1.27l-2.31,1.12-1.18.56-1.24.46-2.51.92c-.85.29-1.75.47-2.63.72a24.06,24.06,0,0,1-2.7.62,41.92,41.92,0,0,1-5.65.66c-1,0-1.94.14-2.92.12l-3-.14c-.49,0-1,0-1.49-.1l-1.49-.22c-1-.17-2-.28-3-.49a49.18,49.18,0,0,1-11.81-4.29c-.94-.51-1.85-1.11-2.79-1.66-.45-.29-.94-.54-1.38-.87l-1.32-1a50.15,50.15,0,0,1-5.08-4.31l-2.27-2.5-.57-.63-.52-.68-1-1.37-1-1.38-.91-1.47-.9-1.48-.45-.74-.38-.78c-.51-1-1-2.1-1.52-3.16s-.81-2.21-1.22-3.31a44.31,44.31,0,0,1,0-28.24c.41-1.11.82-2.21,1.22-3.31s1-2.11,1.52-3.16l.38-.78.46-.74.9-1.48.9-1.48,1-1.37,1-1.37.52-.68.57-.63,2.28-2.5a50.35,50.35,0,0,1,5.08-4.31l1.31-1c.44-.33.93-.58,1.39-.88.93-.55,1.84-1.14,2.78-1.66a47.61,47.61,0,0,1,5.84-2.55,46.55,46.55,0,0,1,6-1.74c1-.2,2-.32,3-.48l1.49-.23c.49-.06,1-.06,1.49-.09l3-.15c1,0,1.95.08,2.91.12a41.54,41.54,0,0,1,5.65.67,22.64,22.64,0,0,1,2.71.62c.88.24,1.77.42,2.63.71l2.51.92,1.24.46,1.18.56,2.31,1.12c.77.35,1.46.86,2.18,1.27s1.42.85,2.09,1.29l1.93,1.45a44.3,44.3,0,0,1,11.29,12.71,42,42,0,0,1,4.87,11.91,22.82,22.82,0,0,1,.56,2.44c.12.77.22,1.5.32,2.18s.21,1.29.26,1.86l.06,1.56.08,2.12C366.4,137,366.39,137.26,366.39,137.26Z" style="fill:#263238"></path><path d="M326.33,137.91a10.18,10.18,0,1,0-7.39,0C303.29,140.13,304,156.1,304,156.1l37,.16S341.84,140.11,326.33,137.91Z" style="fill:#e0e0e0"></path><path d="M252.86,315.24H248a1.23,1.23,0,0,1-1.23-1.23v-4.82A1.23,1.23,0,0,1,248,308h4.82a1.23,1.23,0,0,1,1.23,1.23V314A1.23,1.23,0,0,1,252.86,315.24ZM248,308.46a.73.73,0,0,0-.73.73V314a.72.72,0,0,0,.73.73h4.82a.72.72,0,0,0,.73-.73v-4.82a.73.73,0,0,0-.73-.73Z" style="fill:#263238"></path><path d="M261,313.52l-.88-1.25h-1.27v1.24h-.58v-4.08h1.59c1.06,0,1.7.54,1.7,1.42a1.28,1.28,0,0,1-.9,1.29l1,1.37Zm0-2.66c0-.58-.39-.91-1.14-.91h-1v1.83h1C260.61,311.78,261,311.45,261,310.86Z" style="fill:#263238"></path><path d="M265.23,312.16h-2.51a1,1,0,0,0,1.12.91,1.15,1.15,0,0,0,.89-.38l.31.37a1.69,1.69,0,0,1-2.88-1.08,1.52,1.52,0,0,1,1.55-1.58,1.49,1.49,0,0,1,1.53,1.59A1,1,0,0,1,265.23,312.16Zm-2.51-.4h2a1,1,0,0,0-2,0Z" style="fill:#263238"></path><path d="M271.15,311.74v1.78h-.56v-1.71c0-.61-.29-.91-.8-.91s-.92.36-.92,1v1.59h-.56v-1.71c0-.61-.3-.91-.8-.91a.9.9,0,0,0-.93,1v1.59H266v-3.09h.54v.46a1.26,1.26,0,0,1,1.06-.49,1.16,1.16,0,0,1,1.08.57,1.41,1.41,0,0,1,1.19-.57A1.18,1.18,0,0,1,271.15,311.74Z" style="fill:#263238"></path><path d="M275,312.16h-2.51a1,1,0,0,0,1.12.91,1.15,1.15,0,0,0,.89-.38l.31.37a1.69,1.69,0,0,1-2.88-1.08,1.52,1.52,0,0,1,1.55-1.58A1.49,1.49,0,0,1,275,312C275,312,275,312.11,275,312.16Zm-2.51-.4h2a1,1,0,0,0-2,0Z" style="fill:#263238"></path><path d="M280.91,311.74v1.78h-.56v-1.71c0-.61-.29-.91-.8-.91a.9.9,0,0,0-.93,1v1.59h-.55v-1.71c0-.61-.3-.91-.8-.91a.9.9,0,0,0-.93,1v1.59h-.56v-3.09h.54v.46a1.26,1.26,0,0,1,1.06-.49,1.16,1.16,0,0,1,1.08.57,1.4,1.4,0,0,1,1.18-.57A1.18,1.18,0,0,1,280.91,311.74Z" style="fill:#263238"></path><path d="M285.15,312a1.51,1.51,0,0,1-1.56,1.58,1.32,1.32,0,0,1-1.11-.53v.49H282V309.2h.56v1.7a1.32,1.32,0,0,1,1.08-.5A1.5,1.5,0,0,1,285.15,312Zm-.57,0a1,1,0,1,0-1,1.09A1,1,0,0,0,284.58,312Z" style="fill:#263238"></path><path d="M288.71,312.16H286.2a1,1,0,0,0,1.12.91,1.15,1.15,0,0,0,.89-.38l.31.37a1.69,1.69,0,0,1-2.88-1.08,1.52,1.52,0,0,1,1.55-1.58,1.49,1.49,0,0,1,1.53,1.59C288.72,312,288.71,312.11,288.71,312.16Zm-2.51-.4h2a1,1,0,0,0-1-.88A1,1,0,0,0,286.2,311.76Z" style="fill:#263238"></path><path d="M291.16,310.4V311H291a.92.92,0,0,0-1,1v1.54h-.56v-3.09H290V311A1.17,1.17,0,0,1,291.16,310.4Z" style="fill:#263238"></path><path d="M298.59,311.74v1.78H298v-1.71c0-.61-.29-.91-.8-.91a.9.9,0,0,0-.92,1v1.59h-.56v-1.71c0-.61-.29-.91-.8-.91a.9.9,0,0,0-.93,1v1.59h-.56v-3.09H294v.46a1.26,1.26,0,0,1,1.07-.49,1.15,1.15,0,0,1,1.07.57,1.41,1.41,0,0,1,1.19-.57A1.18,1.18,0,0,1,298.59,311.74Z" style="fill:#263238"></path><path d="M302.43,312.16h-2.51a1,1,0,0,0,1.12.91,1.15,1.15,0,0,0,.89-.38l.31.37a1.69,1.69,0,0,1-2.88-1.08,1.52,1.52,0,0,1,1.55-1.58,1.49,1.49,0,0,1,1.53,1.59A1,1,0,0,1,302.43,312.16Zm-2.51-.4h2a1,1,0,0,0-1-.88A1,1,0,0,0,299.92,311.76Z" style="fill:#263238"></path><path d="M342.4,310v1.42h2.05v.5H342.4v1.65h-.58v-4.08h2.88V310Z" style="fill:#FF725E"></path><path d="M345.06,312a1.61,1.61,0,1,1,1.61,1.58A1.54,1.54,0,0,1,345.06,312Zm2.64,0a1,1,0,1,0-1,1.09A1,1,0,0,0,347.7,312Z" style="fill:#FF725E"></path><path d="M350.71,310.4V311h-.13a.92.92,0,0,0-1,1v1.54h-.56v-3.09h.53V311A1.2,1.2,0,0,1,350.71,310.4Z" style="fill:#FF725E"></path><path d="M354.33,310.43v2.67a1.41,1.41,0,0,1-1.61,1.59,2.31,2.31,0,0,1-1.47-.46l.27-.43a1.89,1.89,0,0,0,1.19.4c.73,0,1.06-.34,1.06-1v-.24a1.42,1.42,0,0,1-1.12.47,1.5,1.5,0,1,1,0-3,1.43,1.43,0,0,1,1.15.51v-.48Zm-.55,1.47a1.07,1.07,0,1,0-1.06,1A1,1,0,0,0,353.78,311.9Z" style="fill:#FF725E"></path><path d="M355.11,312a1.61,1.61,0,1,1,1.61,1.58A1.54,1.54,0,0,1,355.11,312Zm2.65,0a1,1,0,1,0-1,1.09A1,1,0,0,0,357.76,312Z" style="fill:#FF725E"></path><path d="M360.84,313.34a1,1,0,0,1-.68.22.88.88,0,0,1-1-1v-1.7h-.53v-.46h.53v-.67h.56v.67h.88v.46h-.88v1.68a.45.45,0,0,0,.48.51.74.74,0,0,0,.44-.14Z" style="fill:#FF725E"></path><path d="M366.47,310.86c0,.89-.65,1.43-1.71,1.43h-1v1.23h-.59v-4.08h1.59C365.82,309.44,366.47,310,366.47,310.86Zm-.59,0c0-.58-.39-.91-1.13-.91h-1v1.83h1C365.49,311.78,365.88,311.45,365.88,310.86Z" style="fill:#FF725E"></path><path d="M369.66,311.66v1.86h-.53v-.41a1.14,1.14,0,0,1-1,.45c-.7,0-1.14-.38-1.14-.91s.32-.91,1.24-.91h.89v-.11c0-.47-.28-.74-.83-.74a1.52,1.52,0,0,0-1,.33l-.23-.42a2,2,0,0,1,1.27-.4A1.15,1.15,0,0,1,369.66,311.66Zm-.55.92v-.43h-.87c-.55,0-.71.21-.71.47s.26.51.68.51A.92.92,0,0,0,369.11,312.58Z" style="fill:#FF725E"></path><path d="M370.32,313.2l.23-.45a1.94,1.94,0,0,0,1.08.32c.52,0,.74-.15.74-.42,0-.69-1.95-.09-1.95-1.32,0-.55.49-.93,1.28-.93a2.3,2.3,0,0,1,1.13.28l-.24.45a1.63,1.63,0,0,0-.89-.25c-.49,0-.73.18-.73.43,0,.73,2,.13,2,1.33,0,.56-.52.92-1.34.92A2.23,2.23,0,0,1,370.32,313.2Z" style="fill:#FF725E"></path><path d="M373.24,313.2l.23-.45a2,2,0,0,0,1.09.32c.52,0,.73-.15.73-.42,0-.69-2-.09-2-1.32,0-.55.49-.93,1.29-.93a2.29,2.29,0,0,1,1.12.28l-.24.45a1.63,1.63,0,0,0-.89-.25c-.49,0-.73.18-.73.43,0,.73,2,.13,2,1.33,0,.56-.51.92-1.33.92A2.26,2.26,0,0,1,373.24,313.2Z" style="fill:#FF725E"></path><path d="M381.17,310.43,380,313.52h-.54l-.89-2.34-.9,2.34h-.54L376,310.43h.53l.9,2.46.93-2.46h.47l.92,2.47.92-2.47Z" style="fill:#FF725E"></path><path d="M381.37,312a1.61,1.61,0,1,1,1.61,1.58A1.54,1.54,0,0,1,381.37,312Zm2.65,0a1,1,0,1,0-1,1.09A1,1,0,0,0,384,312Z" style="fill:#FF725E"></path><path d="M387,310.4V311h-.13a.92.92,0,0,0-1,1v1.54h-.56v-3.09h.54V311A1.18,1.18,0,0,1,387,310.4Z" style="fill:#FF725E"></path><path d="M390.6,309.2v4.32h-.54V313a1.3,1.3,0,0,1-1.1.53,1.58,1.58,0,0,1,0-3.16,1.33,1.33,0,0,1,1.08.5v-1.7ZM390,312a1,1,0,1,0-1,1.09A1,1,0,0,0,390,312Z" style="fill:#FF725E"></path><path d="M393.49,310.52c0-.37-.31-.63-.83-.63a1.25,1.25,0,0,0-1.05.46l-.42-.3a1.79,1.79,0,0,1,1.51-.66c.84,0,1.38.4,1.38,1,0,1-1,1-1,1.8h-.59C392.46,311.32,393.49,311.19,393.49,310.52Zm-1.11,2.66a.37.37,0,0,1,.38-.37.36.36,0,0,1,.37.37.37.37,0,0,1-.37.38A.37.37,0,0,1,392.38,313.18Z" style="fill:#FF725E"></path><path d="M250.1,313.1a.41.41,0,0,1-.24-.08l-1.06-.87a.37.37,0,0,1-.05-.53.37.37,0,0,1,.52-.05l.79.64,1.83-2a.38.38,0,0,1,.55.51L250.37,313A.36.36,0,0,1,250.1,313.1Z" style="fill:#263238"></path><path d="M383.27,208.42a3.14,3.14,0,0,0,1.86-2.89,2.93,2.93,0,1,0-5.85,0,3.12,3.12,0,0,0,1.86,2.92c-4.5.67-4.3,5.57-4.3,5.57l10.65,0S387.73,209.09,383.27,208.42Z" style="fill:#e0e0e0"></path><path d="M406.47,79.13h10.71a.63.63,0,0,0,0-1.25H406.47a.63.63,0,0,0,0,1.25Z" style="fill:#263238"></path><path d="M406.47,82.5h10.71a.63.63,0,0,0,0-1.25H406.47a.63.63,0,0,0,0,1.25Z" style="fill:#263238"></path><path d="M406.47,85.87h10.71a.63.63,0,0,0,0-1.25H406.47a.63.63,0,0,0,0,1.25Z" style="fill:#263238"></path></g><g id="freepik--Plant--inject-85"><path d="M400.43,350.81a6.42,6.42,0,0,1,.43,2.74,9.19,9.19,0,0,1,1.25-3.1c.22-.35.58-.73,1-.63s.54.61.55,1a6.77,6.77,0,0,1-.75,3.34,7.48,7.48,0,0,1,2.82-2.19.7.7,0,0,1,.61-.05.68.68,0,0,1,.18.69A5.71,5.71,0,0,1,403,357l-.59.09a5.31,5.31,0,0,1-3.81-6.11c.09-.49.37-1.06.87-1.07S400.26,350.4,400.43,350.81Z" style="fill:#FF725E"></path><path d="M413.81,377.56a16.92,16.92,0,0,0-5.67-2.29,23.32,23.32,0,0,0,.16-12.54,11.9,11.9,0,0,0-2.12-4.52,6.17,6.17,0,0,0-4.26-2.38,6,6,0,0,0-4.74,2.2l-2.09,4.84a19.31,19.31,0,0,0-.25,2.13,25.59,25.59,0,0,0,3.06,13.55c-2.19,2.4-4.55,6.55-3.84,11.36h24.87C419.37,385.3,417.61,380.3,413.81,377.56Z" style="fill:#455a64"></path><path d="M396.79,380.09a1.09,1.09,0,0,1,.19-.27,6.61,6.61,0,0,1,.61-.71,11.4,11.4,0,0,1,2.76-2.11,13.09,13.09,0,0,1,4.9-1.57,11.88,11.88,0,0,1,11.16,4.81,13.09,13.09,0,0,1,2.23,4.64,11.88,11.88,0,0,1,.36,3.46,9.08,9.08,0,0,1-.1.93,1.12,1.12,0,0,1-.07.33,15,15,0,0,0-.45-4.65,13.25,13.25,0,0,0-2.25-4.5,11.72,11.72,0,0,0-10.84-4.67,13.24,13.24,0,0,0-4.81,1.45A15.26,15.26,0,0,0,396.79,380.09Z" style="fill:#263238"></path><path d="M394.71,366.78a6,6,0,0,1,0-1.65,14.19,14.19,0,0,1,.68-3.93,8.14,8.14,0,0,1,2.12-3.39,3.39,3.39,0,0,1,1.41-.88c0,.05-.53.36-1.22,1.07a9,9,0,0,0-2,3.32,18.21,18.21,0,0,0-.76,3.83A8.34,8.34,0,0,1,394.71,366.78Z" style="fill:#263238"></path><path d="M409.09,386.75a91.69,91.69,0,0,1,4.72-4.67,17.29,17.29,0,0,1-4.72,4.67Z" style="fill:#263238"></path><path d="M406.32,385.3a8.53,8.53,0,0,1,.4-2.47,8.74,8.74,0,0,1,.77-2.38,8.53,8.53,0,0,1-.4,2.47A8.36,8.36,0,0,1,406.32,385.3Z" style="fill:#263238"></path><path d="M398.93,382.54a6.33,6.33,0,0,1,1.42,2.25,6.5,6.5,0,0,1,.76,2.54,15.57,15.57,0,0,1-1.11-2.39A17.2,17.2,0,0,1,398.93,382.54Z" style="fill:#263238"></path><path d="M406.92,370.92a24.06,24.06,0,0,1,3.67-4.85,12.22,12.22,0,0,1-1.69,2.54A12.56,12.56,0,0,1,406.92,370.92Z" style="fill:#263238"></path><path d="M405.16,363.14a36.34,36.34,0,0,1,4.12-6,17.1,17.1,0,0,1-1.9,3.11A17.5,17.5,0,0,1,405.16,363.14Z" style="fill:#263238"></path><path d="M402.36,365.18a9.59,9.59,0,0,1,.36,2.64,9.14,9.14,0,0,1,0,2.66,19.12,19.12,0,0,1-.33-5.3Z" style="fill:#263238"></path><path d="M391.19,368.72a16,16,0,0,1,3.53,1.81,16.52,16.52,0,0,1,3.22,2.31,29.1,29.1,0,0,1-3.42-2A28.3,28.3,0,0,1,391.19,368.72Z" style="fill:#263238"></path><g style="opacity:0.30000000000000004"><path d="M400.14,375.42a8.77,8.77,0,0,1,4-1c1.45-.07,3.07.08,4.05,1.15v.05A15,15,0,0,0,398,378.81,4.08,4.08,0,0,1,400.14,375.42Z"></path></g><path d="M412,326.57a4.91,4.91,0,0,1,2.19-.08,7.24,7.24,0,0,1-2.31-1.27c-.26-.21-.52-.52-.4-.83s.53-.36.86-.33a5.27,5.27,0,0,1,2.53.91,6,6,0,0,1-1.44-2.42.51.51,0,0,1,0-.48c.12-.15.36-.13.55-.08a4.51,4.51,0,0,1,3.12,3.13v.47A4.18,4.18,0,0,1,412,328c-.38-.12-.8-.4-.76-.79S411.62,326.66,412,326.57Z" style="fill:#FF725E"></path><path d="M462.13,294.78A5,5,0,0,1,462,297a7.15,7.15,0,0,1,1.45-2.19c.23-.24.57-.47.86-.33s.32.56.26.89a5.36,5.36,0,0,1-1.11,2.45,5.85,5.85,0,0,1,2.52-1.24.51.51,0,0,1,.48.06.52.52,0,0,1,0,.55,4.5,4.5,0,0,1-3.37,2.85l-.48,0a4.24,4.24,0,0,1-2-2.27,4.2,4.2,0,0,1,.06-3c.15-.37.45-.77.84-.69S462.06,294.43,462.13,294.78Z" style="fill:#FF725E"></path><path d="M427.2,359.82c.37,0,.72.06,1.07.09.64-7.11-1.51-14.32.66-21.11l-.29.37a16.07,16.07,0,0,1-7.79-.7,9.73,9.73,0,0,1-5.64-5.23,7,7,0,0,1,1.2-7.38c2.46-2.57,6.79-2.44,9.87-.67s5.07,4.58,7,7.41a12.81,12.81,0,0,1,3.4-2c-3.43-4.72-6.75-9.67-7.83-15.38C427.7,309,430,301.64,435.82,299c4.93-2.22,11.11-.21,14.59,3.93.27.32.5.67.74,1l-.11-.34a9,9,0,0,1,4.68-4.94,7.68,7.68,0,0,1,6.74.33,6.64,6.64,0,0,1,3.3,5.77,7.4,7.4,0,0,1-4.28,6.15,11.59,11.59,0,0,1-7.38.69,22.26,22.26,0,0,1,0,6.62,38.14,38.14,0,0,1-5.61,13.87,12.9,12.9,0,0,1,2,1.67c4.47,4.68,4.76,12.19,2.41,18.22s-8.68,10.48-13.08,15.23h0a29,29,0,0,1,3.38,10.61,9.64,9.64,0,0,1,8.51-5.46c1.92,0,4.07.87,4.67,2.69.52,1.61-.36,3.35-1.51,4.6a12.21,12.21,0,0,1-11.26,3.3l0-1.18a50.29,50.29,0,0,1-.19,8.11H415S407.39,359.09,427.2,359.82Z" style="fill:#455a64"></path><rect x="382.44" y="389.91" width="67.15" height="11.9" transform="translate(832.03 791.72) rotate(180)" style="fill:#FF725E"></rect><polygon points="444.58 399.45 436.41 435.02 396.39 435.02 387.45 399.45 444.58 399.45" style="fill:#FF725E"></polygon><path d="M382.48,401.83c0,.13,15.14.23,33.82.23s33.83-.1,33.83-.23-15.14-.24-33.83-.24S382.48,401.7,382.48,401.83Z" style="fill:#263238"></path><path d="M421.94,361a1.81,1.81,0,0,1,.39-.22,8.24,8.24,0,0,1,1.18-.51,11.49,11.49,0,0,1,4.67-.53,14.18,14.18,0,0,1,6.57,2.3,17.48,17.48,0,0,1,5.65,6.39,26.1,26.1,0,0,1,2.71,8.11,43.9,43.9,0,0,1,.45,7c0,2-.07,3.58-.11,4.69,0,.52,0,.94-.06,1.28a1.89,1.89,0,0,1,0,.44,2.5,2.5,0,0,1,0-.44c0-.34,0-.76,0-1.28V383.5a46.56,46.56,0,0,0-.54-6.91,25.75,25.75,0,0,0-2.69-8,17.41,17.41,0,0,0-5.51-6.28,14.2,14.2,0,0,0-6.41-2.33,12,12,0,0,0-4.6.41C422.5,360.73,422,361,421.94,361Z" style="fill:#263238"></path><path d="M427.94,345.92a1.23,1.23,0,0,1-.05-.33c0-.22-.05-.55,0-1a16.88,16.88,0,0,1,2.4-8.49,13.38,13.38,0,0,1,1.9-2.51,11.11,11.11,0,0,1,2.66-2.11,11.29,11.29,0,0,1,3.17-1.22,13.12,13.12,0,0,1,3.15-.23,15.4,15.4,0,0,1,5.16,1.23,17.11,17.11,0,0,1,3.15,1.71c.35.23.6.44.78.58s.26.21.25.22a10.78,10.78,0,0,1-1.11-.68,20.84,20.84,0,0,0-3.17-1.59,15.69,15.69,0,0,0-5.08-1.12,13.47,13.47,0,0,0-3.06.24,11.29,11.29,0,0,0-3.06,1.19,11,11,0,0,0-2.57,2,13.62,13.62,0,0,0-1.88,2.44,17.25,17.25,0,0,0-2,4.81,18.25,18.25,0,0,0-.53,3.5C428,345.46,428,345.92,427.94,345.92Z" style="fill:#263238"></path><path d="M454.32,315.9a14.34,14.34,0,0,1-.24-2.28c-.05-.71-.13-1.54-.28-2.45a12.1,12.1,0,0,0-.8-2.88,29.27,29.27,0,0,0-2.6-4.83c-.77-1.18-1.36-1.82-1.32-1.86s.19.12.47.41a13.53,13.53,0,0,1,1.07,1.3,23.8,23.8,0,0,1,2.73,4.83,11.22,11.22,0,0,1,.79,3,20.67,20.67,0,0,1,.21,2.49A14.17,14.17,0,0,1,454.32,315.9Z" style="fill:#263238"></path><path d="M450.66,379.71a15.39,15.39,0,0,1,3.62,3.15,8.28,8.28,0,0,1-1.94-1.43A7.57,7.57,0,0,1,450.66,379.71Z" style="fill:#263238"></path><path d="M453,377.34a8.46,8.46,0,0,1,2.41-.43,7.63,7.63,0,0,1,2.44,0,16.09,16.09,0,0,1-4.85.47Z" style="fill:#263238"></path><path d="M451.23,373.15a15.52,15.52,0,0,1,1.35-1.86,13.86,13.86,0,0,1,1.36-1.86,5,5,0,0,1-1.05,2.08A4.8,4.8,0,0,1,451.23,373.15Z" style="fill:#263238"></path><path d="M448.06,371.23a10.75,10.75,0,0,1-.44,2.75,10.56,10.56,0,0,1-.81,2.66,10.24,10.24,0,0,1,.44-2.75A9.83,9.83,0,0,1,448.06,371.23Z" style="fill:#263238"></path><path d="M445.93,380.82c-.07-.07.38-.59,1-1.15s1.19-.95,1.26-.88-.38.6-1,1.16S446,380.9,445.93,380.82Z" style="fill:#263238"></path><path d="M436.06,379a5.2,5.2,0,0,1,1.22-1.55c.75-.77,1.41-1.35,1.49-1.28a5.2,5.2,0,0,1-1.22,1.55C436.81,378.47,436.14,379,436.06,379Z" style="fill:#263238"></path><path d="M433.92,369.85a5.73,5.73,0,0,1,.91-1.84,5.84,5.84,0,0,1,1.23-1.66,5.63,5.63,0,0,1-.91,1.85A5.53,5.53,0,0,1,433.92,369.85Z" style="fill:#263238"></path><path d="M427.64,362.43a7.89,7.89,0,0,1,.22,2.37,7.58,7.58,0,0,1-.16,2.37,7.85,7.85,0,0,1-.22-2.36A7.37,7.37,0,0,1,427.64,362.43Z" style="fill:#263238"></path><path d="M414.45,365a17.09,17.09,0,0,1,1.88,2.19,17.77,17.77,0,0,1,1.79,2.25,8.06,8.06,0,0,1-2.08-2A8.47,8.47,0,0,1,414.45,365Z" style="fill:#263238"></path><path d="M412.76,377.9a7.46,7.46,0,0,1,2.35.26,7.75,7.75,0,0,1,2.28.63,7.13,7.13,0,0,1-2.35-.26A7.41,7.41,0,0,1,412.76,377.9Z" style="fill:#263238"></path><path d="M426.44,382.41a6.71,6.71,0,0,1,.91-2.59,6.81,6.81,0,0,1,1.55-2.26,330.66,330.66,0,0,1-2.46,4.85Z" style="fill:#263238"></path><path d="M421.88,376.2a5.13,5.13,0,0,1-.23-1.92,5,5,0,0,1,.14-1.92,5,5,0,0,1,.24,1.92A5.15,5.15,0,0,1,421.88,376.2Z" style="fill:#263238"></path><path d="M436.6,387.15a4.21,4.21,0,0,1,.8-2,4.29,4.29,0,0,1,1.42-1.62,11,11,0,0,1-1.1,1.82A11.3,11.3,0,0,1,436.6,387.15Z" style="fill:#263238"></path><path d="M421,388.05a6.17,6.17,0,0,1-1-1.84,6,6,0,0,1-.67-2,11.6,11.6,0,0,1,1.69,3.83Z" style="fill:#263238"></path><path d="M445.25,359.18a9.08,9.08,0,0,1,2.61-.11,8.9,8.9,0,0,1,2.59.28,9.31,9.31,0,0,1-2.61.1A9.57,9.57,0,0,1,445.25,359.18Z" style="fill:#263238"></path><path d="M450.92,349.49a12.84,12.84,0,0,1,2.49-2,14.22,14.22,0,0,1,2.72-1.7,13.33,13.33,0,0,1-2.5,2A14,14,0,0,1,450.92,349.49Z" style="fill:#263238"></path><path d="M450.33,337a15.71,15.71,0,0,1,2-1.34,15.21,15.21,0,0,1,2-1.35,8.1,8.1,0,0,1-4.07,2.69Z" style="fill:#263238"></path><path d="M444,332.64a25.15,25.15,0,0,1,1.47-6,12.47,12.47,0,0,1-.55,3A11.74,11.74,0,0,1,444,332.64Z" style="fill:#263238"></path><path d="M433.38,329.51a6.24,6.24,0,0,1,1.24,1.82,6.53,6.53,0,0,1,.9,2,6.51,6.51,0,0,1-1.23-1.82A6.72,6.72,0,0,1,433.38,329.51Z" style="fill:#263238"></path><path d="M424.25,350.5c.07-.08,1.28.85,2.87,1.82s2.95,1.66,2.91,1.76a9.68,9.68,0,0,1-3.11-1.44A9.42,9.42,0,0,1,424.25,350.5Z" style="fill:#263238"></path><path d="M439.06,355.23a13.29,13.29,0,0,1,3.84-2.37,13.89,13.89,0,0,1-3.84,2.37Z" style="fill:#263238"></path><path d="M441.54,345.18c-.08-.08.88-1,1.77-2.39s1.38-2.62,1.49-2.58a6.35,6.35,0,0,1-1.17,2.78A6.2,6.2,0,0,1,441.54,345.18Z" style="fill:#263238"></path><path d="M436.68,342.92a7.82,7.82,0,0,1-.08-2.44,8,8,0,0,1,.3-2.41,7.71,7.71,0,0,1,.08,2.43A8.13,8.13,0,0,1,436.68,342.92Z" style="fill:#263238"></path><path d="M434,352.84a8.35,8.35,0,0,1-.47-2.46,8.11,8.11,0,0,1-.1-2.5,8.75,8.75,0,0,1,.47,2.46A8.5,8.5,0,0,1,434,352.84Z" style="fill:#263238"></path><path d="M426.48,322.94a21.82,21.82,0,0,1,.79,2.78,23.46,23.46,0,0,1,.8,2.77,7.37,7.37,0,0,1-1.16-2.67A7.5,7.5,0,0,1,426.48,322.94Z" style="fill:#263238"></path><path d="M421.19,340.37a20.21,20.21,0,0,1,2.17-1.6,18.18,18.18,0,0,1,2.19-1.57,7,7,0,0,1-2,1.88A6.73,6.73,0,0,1,421.19,340.37Z" style="fill:#263238"></path><path d="M414,335a16.63,16.63,0,0,1,2.65-.54,18.2,18.2,0,0,1,2.66-.48,10.73,10.73,0,0,1-5.31,1Z" style="fill:#263238"></path><path d="M421,329c.05-.09.73.24,1.51.74s1.37,1,1.31,1.07a4,4,0,0,1-1.51-.75C421.53,329.6,420.94,329.13,421,329Z" style="fill:#263238"></path><path d="M417.51,322.58a4.61,4.61,0,0,1,1.72,1.42,4.67,4.67,0,0,1,1.17,1.9,11.44,11.44,0,0,1-1.46-1.65A11.28,11.28,0,0,1,417.51,322.58Z" style="fill:#263238"></path><path d="M412.75,328.74a13.66,13.66,0,0,1,2.44.6,14.41,14.41,0,0,1,2.43.7,6.21,6.21,0,0,1-2.52-.33A6.56,6.56,0,0,1,412.75,328.74Z" style="fill:#263238"></path><path d="M445.71,320.45c-.08-.06,1-1.47,2.14-3.27a35.64,35.64,0,0,1,2.19-3.24,14.7,14.7,0,0,1-1.87,3.45A14,14,0,0,1,445.71,320.45Z" style="fill:#263238"></path><path d="M443.59,312.92a11,11,0,0,1,.18-2.82,10.06,10.06,0,0,1,.56-2.76,10.94,10.94,0,0,1-.18,2.81A10.66,10.66,0,0,1,443.59,312.92Z" style="fill:#263238"></path><path d="M436.27,314.09c.11,0,.42,1.43,1.14,3.09s1.56,2.88,1.47,2.95a7.74,7.74,0,0,1-1.82-2.8A7.52,7.52,0,0,1,436.27,314.09Z" style="fill:#263238"></path><path d="M427.67,315.91c.08-.07,1.15,1.2,2.63,2.58s2.8,2.39,2.74,2.48a11,11,0,0,1-3-2.2A10.75,10.75,0,0,1,427.67,315.91Z" style="fill:#263238"></path><path d="M431,300.29c.11,0,.44,1.57,1,3.47s1.2,3.4,1.1,3.45a11.2,11.2,0,0,1-1.47-3.34A11.35,11.35,0,0,1,431,300.29Z" style="fill:#263238"></path><path d="M440.91,295.15a10.74,10.74,0,0,1,.35,2.78,10.61,10.61,0,0,1,0,2.8,10,10,0,0,1-.36-2.78A9.88,9.88,0,0,1,440.91,295.15Z" style="fill:#263238"></path><path d="M461.36,308.36a11.61,11.61,0,0,1,2.13.15,10.81,10.81,0,0,1,2.13.2,4.42,4.42,0,0,1-2.16.18A4.26,4.26,0,0,1,461.36,308.36Z" style="fill:#263238"></path><path d="M460.76,303.2a15.88,15.88,0,0,1,2.93-1.77,15.7,15.7,0,0,1,3.1-1.43,15.88,15.88,0,0,1-2.93,1.77A15.7,15.7,0,0,1,460.76,303.2Z" style="fill:#263238"></path><path d="M455.23,303.39a18.74,18.74,0,0,1,1.61-5.14,9.64,9.64,0,0,1-.63,2.62A10.22,10.22,0,0,1,455.23,303.39Z" style="fill:#263238"></path><g style="opacity:0.30000000000000004"><path d="M439.74,367.27a8.86,8.86,0,0,0-3.79-6.94c-2.23-1.51-6.26-1.65-7.84-.53a12.18,12.18,0,0,1,6.88,2.37,19.38,19.38,0,0,1,4.75,5.1"></path></g><g style="opacity:0.30000000000000004"><path d="M448.49,332.64a7.66,7.66,0,0,0-5.4-4.21c-2.3-.42-5.55.86-6.41,2.3a10.53,10.53,0,0,1,6.28-.5,17,17,0,0,1,5.53,2.41"></path></g><g style="opacity:0.30000000000000004"><path d="M454.28,312.05a6.07,6.07,0,0,0,.37-5.24,5.14,5.14,0,0,0-3.73-3c1.78,2.58,3.18,5.21,3.31,8.34"></path></g><path d="M418.46,362.62s-.3.27-.77.82A15,15,0,0,0,416,366a27.54,27.54,0,0,0-2.46,9.72,44.52,44.52,0,0,0,.5,10.08c.2,1.28.39,2.32.53,3a7.9,7.9,0,0,1,.17,1.12,5.13,5.13,0,0,1-.33-1.08c-.18-.71-.42-1.74-.66-3a40.11,40.11,0,0,1-.62-10.16,25.77,25.77,0,0,1,2.62-9.83,12.53,12.53,0,0,1,1.85-2.48A3,3,0,0,1,418.46,362.62Z" style="fill:#263238"></path><path d="M449.59,389.91l-.2,0-.6,0-2.31,0L438,390l-27.95.06-27.62-.05.13-.14c0,3.66,0,6.63,0,8.72q0,1.51,0,2.37c0,.25,0,.46,0,.62s0,.21,0,.21,0-.07,0-.21l0-.62c0-.57,0-1.36-.05-2.37,0-2.09-.05-5.06-.09-8.72v-.13h.14l27.62-.06,27.95.06,8.47.06,2.31,0,.6,0A.8.8,0,0,1,449.59,389.91Z" style="fill:#263238"></path></g><g id="freepik--speech-bubble--inject-85"><path d="M98.88,215.61a4.12,4.12,0,1,1-4.11-4.11A4.11,4.11,0,0,1,98.88,215.61Z" style="fill:#fff"></path><path d="M98.88,215.61s0-.36-.22-1a4.14,4.14,0,0,0-1.51-2.14,3.89,3.89,0,1,0,0,6.25,4.12,4.12,0,0,0,1.51-2.15c.18-.61.18-1,.22-1a2,2,0,0,1,0,1A4,4,0,0,1,97.37,219a4.27,4.27,0,0,1-4.08.67,4.33,4.33,0,0,1,0-8.18,4.28,4.28,0,0,1,4.08.68,4,4,0,0,1,1.48,2.38A1.94,1.94,0,0,1,98.88,215.61Z" style="fill:#263238"></path><path d="M68.46,220.63A23.54,23.54,0,1,0,42.9,199.31,23.52,23.52,0,0,0,68.46,220.63Z" style="fill:#fff"></path><path d="M68.46,220.63a1.52,1.52,0,0,1-.38.05l-1.12.07-.82,0c-.31,0-.64,0-1,0a15.76,15.76,0,0,1-2.48-.23,22.39,22.39,0,0,1-6.53-2,23.64,23.64,0,0,1-12.76-27.4,24.3,24.3,0,0,1,1.07-3.22,23.1,23.1,0,0,1,6.17-8.54,23.14,23.14,0,0,1,6.22-4,23.51,23.51,0,0,1,15-1.35,23.14,23.14,0,0,1,6.84,2.8,22.2,22.2,0,0,1,5.48,4.56,25.08,25.08,0,0,1,2.12,2.74,24,24,0,0,1,1.63,3A23.67,23.67,0,0,1,90,199.46a23.73,23.73,0,0,1-9.75,16.9,22.21,22.21,0,0,1-6.07,3.12,15.84,15.84,0,0,1-2.4.67c-.35.08-.67.17-1,.22l-.82.11-1.12.13-.38,0,.38-.08,1.1-.18.81-.13c.3-.06.62-.15,1-.24a18.29,18.29,0,0,0,2.37-.71,22.66,22.66,0,0,0,6-3.17,23.42,23.42,0,0,0,6-6.53,23.13,23.13,0,0,0,3.44-10.17,23.44,23.44,0,0,0-2.12-12.1,23.74,23.74,0,0,0-1.61-2.91,25,25,0,0,0-2.08-2.68,27,27,0,0,0-2.48-2.42,24.55,24.55,0,0,0-2.89-2,22.73,22.73,0,0,0-6.69-2.74,25.24,25.24,0,0,0-7.43-.53A24.78,24.78,0,0,0,57,175.87,22.62,22.62,0,0,0,51,179.76a28.07,28.07,0,0,0-2.49,2.51,28.58,28.58,0,0,0-2,2.84,21.63,21.63,0,0,0-2.63,6.15,23.26,23.26,0,0,0,5.3,21.68,23.26,23.26,0,0,0,7.12,5.33,22.43,22.43,0,0,0,6.44,2,17.33,17.33,0,0,0,2.46.28c.35,0,.68.06,1,.06l.82,0,1.12,0Z" style="fill:#263238"></path><polygon points="66.39 205.65 56.83 198.58 59.3 195.25 65.71 199.98 74.46 189.47 77.64 192.12 66.39 205.65" style="fill:#FF725E"></polygon></g><g id="freepik--Character--inject-85"><polygon points="73.66 408.17 68.56 451.41 76.39 451.41 90.41 408.17 73.66 408.17" style="fill:#e0e0e0"></polygon><polygon points="102.25 391.61 97.16 434.85 104.99 434.85 119.01 391.61 102.25 391.61" style="fill:#e0e0e0"></polygon><polygon points="208.1 408.17 213.66 451.41 205.13 451.41 189.84 408.17 208.1 408.17" style="fill:#e0e0e0"></polygon><polygon points="181.53 392.67 187.09 435.91 178.56 435.91 163.27 392.67 181.53 392.67" style="fill:#e0e0e0"></polygon><path d="M97.09,249.16s-21.4,1.51-35.75,8.89c-11.26,5.8-16.74,13.93-19,34.37s-16.58,24.63-16.95,31.63c-.36,6.83,3.14,36,28.3,94.43a7.32,7.32,0,0,0,6.72,4.42h87.2V247.79Z" style="fill:#455a64"></path><path d="M180.17,249.16s21.4,1.51,35.75,8.89c11.26,5.8,16.74,13.93,19,34.37s16.58,24.63,16.95,31.63c.36,6.85-3.16,36.21-28.55,95a6.34,6.34,0,0,1-5.82,3.82H129.6V247.79Z" style="fill:#455a64"></path><path d="M201.75,393.53a9.1,9.1,0,0,1,1.55-.29,14.34,14.34,0,0,1,4.29.2,11,11,0,0,1,5.58,3.06,17.76,17.76,0,0,1,3.92,6.75,38.2,38.2,0,0,1,1.67,7.61c.3,2.38.42,4.53.48,6.34s0,3.27,0,4.28a7.41,7.41,0,0,1-.1,1.56,9.68,9.68,0,0,1-.1-1.56c0-1-.09-2.47-.19-4.26s-.26-3.94-.58-6.29a40.68,40.68,0,0,0-1.69-7.51,17.63,17.63,0,0,0-3.77-6.58,10.84,10.84,0,0,0-5.32-3A20.23,20.23,0,0,0,201.75,393.53Z" style="fill:#263238"></path><path d="M210.46,368.64c0,.15-32.38.26-72.3.26s-72.31-.11-72.31-.26,32.37-.26,72.31-.26S210.46,368.5,210.46,368.64Z" style="fill:#263238"></path><path d="M72.25,392.29a9.77,9.77,0,0,1-1.49.17c-.48,0-1.05.18-1.72.28-.33.06-.67.19-1,.28a6.11,6.11,0,0,0-1.15.41,11.68,11.68,0,0,0-4.71,3.5A17.41,17.41,0,0,0,59,403.48a34.15,34.15,0,0,0-1,7.28,55.07,55.07,0,0,0,.1,6c.12,1.72.28,3.1.4,4.06a11.89,11.89,0,0,1,.16,1.49,6.19,6.19,0,0,1-.36-1.46c-.18-.95-.4-2.33-.56-4.06a47,47,0,0,1-.22-6.07,32.84,32.84,0,0,1,1-7.4,17.4,17.4,0,0,1,3.24-6.72,11.81,11.81,0,0,1,5-3.55,6.25,6.25,0,0,1,1.19-.37,9.77,9.77,0,0,1,1.08-.25c.68-.08,1.27-.2,1.76-.2A7.26,7.26,0,0,1,72.25,392.29Z" style="fill:#263238"></path><path d="M72.25,392.29a1.17,1.17,0,0,1-.1-.23c-.07-.19-.16-.42-.26-.7-.23-.62-.56-1.53-.91-2.73-.75-2.38-1.7-5.86-2.83-10.17s-2.44-9.46-3.9-15.15-3.12-12-5.09-18.46c-1-3.23-2-6.4-3.3-9.33a19,19,0,0,0-1-2.14c-.34-.69-.72-1.37-1.11-2-.77-1.34-1.51-2.65-2.27-3.9a19.92,19.92,0,0,0-5.41-6.17,15.75,15.75,0,0,0-6.68-2.51,18.34,18.34,0,0,0-10.21,1.47,22.73,22.73,0,0,0-3.32,1.95s.06-.07.18-.17l.59-.47a14.37,14.37,0,0,1,2.46-1.49,18.26,18.26,0,0,1,10.35-1.66,16.11,16.11,0,0,1,6.87,2.52,20,20,0,0,1,5.57,6.28c.79,1.25,1.53,2.57,2.3,3.9.39.66.78,1.34,1.13,2.06a20.48,20.48,0,0,1,1,2.17,97.33,97.33,0,0,1,3.32,9.37c2,6.52,3.61,12.79,5.06,18.5S67.42,374,68.5,378.37s2,7.81,2.67,10.2c.33,1.21.62,2.13.81,2.75l.22.72A.94.94,0,0,1,72.25,392.29Z" style="fill:#263238"></path><path d="M185.7,349.58s-.3,0-.89,0l-2.63,0-10.11,0-37.16,0-25.66-.05L95,349.45c-2.46,0-4.95,0-7.46.13a12.81,12.81,0,0,0-1.83.2,12.36,12.36,0,0,0-1.7.79c-1.12.6-2.21,1.27-3.3,2-2.18,1.39-4.33,2.9-6.43,4.51a57.61,57.61,0,0,0-6.07,5.23,13.18,13.18,0,0,0-2.44,3.16,2.75,2.75,0,0,0-.24.89,5.89,5.89,0,0,0,.19.95l.49,2c.66,2.69,1.37,5.39,2.08,8.12s1.48,5.47,2.23,8.24c.4,1.38.79,2.76,1.19,4.15.21.69.42,1.38.66,2,0,.09.06.12.08.19s0,.07,0,.07,0,0,0,0,.33.05.51.06c.35,0,.72.06,1.08.08,5.81.28,11.73.33,17.71.43,23.94.28,46.75.31,67.5.26,10.37,0,20.23-.09,29.45-.21,4.61-.07,9.06-.14,13.34-.3,1.07,0,2.13-.09,3.16-.17l.78-.07c.13,0,.24,0,.36-.06a.37.37,0,0,0,.24-.14,4.22,4.22,0,0,0,.71-1.27A50.08,50.08,0,0,0,209,385c1-3.8,1.74-7.45,2.46-10.91.18-.87.36-1.72.53-2.56a9.79,9.79,0,0,0,.35-2.45,8.52,8.52,0,0,0-2.18-4.14,45.28,45.28,0,0,0-6.39-5.82c-2.1-1.65-4.07-3.08-5.84-4.38a35,35,0,0,0-4.78-3.29,16.91,16.91,0,0,0-4-1.42,17.09,17.09,0,0,0-2.59-.37l-.67,0-.23,0s.31,0,.9,0a14.84,14.84,0,0,1,2.61.32,16.37,16.37,0,0,1,4,1.39,32.33,32.33,0,0,1,4.83,3.26c1.78,1.29,3.76,2.71,5.88,4.34a46,46,0,0,1,6.45,5.83,8.86,8.86,0,0,1,2.27,4.3,9.73,9.73,0,0,1-.34,2.54c-.17.85-.35,1.7-.52,2.56-.72,3.47-1.48,7.13-2.43,10.94a50.66,50.66,0,0,1-1.75,5.78,4.56,4.56,0,0,1-.8,1.41.74.74,0,0,1-.42.24,2.79,2.79,0,0,1-.4.07l-.79.08c-1.05.08-2.11.13-3.18.17-4.29.17-8.74.25-13.36.33-9.22.14-19.08.22-29.45.26-20.75.07-43.56.06-67.51-.22-6-.1-11.9-.15-17.73-.43-.37,0-.73,0-1.1-.08l-.57-.08a1.3,1.3,0,0,1-.25-.1c-.06-.05-.06-.11-.1-.16a1.66,1.66,0,0,1-.14-.31c-.26-.7-.47-1.39-.67-2.08-.4-1.39-.8-2.78-1.19-4.16l-2.23-8.25c-.72-2.73-1.42-5.44-2.08-8.13l-.49-2a5.33,5.33,0,0,1-.2-1.08,3,3,0,0,1,.29-1.09,13.53,13.53,0,0,1,2.53-3.3,60.57,60.57,0,0,1,6.13-5.27c2.12-1.61,4.27-3.12,6.47-4.52,1.1-.7,2.2-1.37,3.34-2a13,13,0,0,1,1.77-.82,11.31,11.31,0,0,1,2-.22C90,349,92.5,349,95,349l14.29.12,25.66.11,37.17.21,10.1.08,2.63,0Z" style="fill:#263238"></path><path d="M207.31,392.29a.94.94,0,0,1,.05-.25c.06-.19.12-.43.21-.71.18-.63.47-1.55.75-2.75.64-2.39,1.39-5.89,2.28-10.23s1.91-9.52,3.05-15.26,2.47-12,4.2-18.59a77.92,77.92,0,0,1,3.06-9.41c.33-.74.71-1.44,1.06-2.15s.79-1.35,1.2-2a41.93,41.93,0,0,1,2.61-3.69,24.14,24.14,0,0,1,6.16-5.64,17.1,17.1,0,0,1,6.86-2.41,18.29,18.29,0,0,1,10.29,1.67,16.61,16.61,0,0,1,2.45,1.49l.58.46c.12.11.19.17.18.18A23.06,23.06,0,0,0,249,321a18.49,18.49,0,0,0-10.15-1.49,17,17,0,0,0-6.69,2.42,23.93,23.93,0,0,0-6,5.57,41.73,41.73,0,0,0-2.57,3.66c-.4.65-.83,1.3-1.18,2s-.71,1.38-1,2.1a79.17,79.17,0,0,0-3,9.34c-1.72,6.53-3,12.83-4.23,18.56s-2.22,10.9-3.16,15.23-1.75,7.83-2.44,10.21c-.32,1.2-.64,2.11-.85,2.73-.11.28-.19.51-.26.7A1.17,1.17,0,0,1,207.31,392.29Z" style="fill:#263238"></path><path d="M209.66,263.62c.14,0-4.42,19.32-10.19,43.08s-10.56,43-10.7,42.95,4.42-19.32,10.19-43.08S209.52,263.59,209.66,263.62Z" style="fill:#263238"></path><path d="M66.48,269.76a4.68,4.68,0,0,1,.29.8c.17.57.41,1.33.71,2.3.62,2.06,1.48,4.95,2.54,8.5,2.11,7.19,5,17.14,8,28.16s5.69,21,7.57,28.28c.91,3.6,1.65,6.52,2.18,8.6.23,1,.42,1.77.56,2.35a4.91,4.91,0,0,1,.16.83,4.87,4.87,0,0,1-.26-.81c-.17-.57-.38-1.34-.66-2.32-.57-2.07-1.36-5-2.34-8.55-2-7.27-4.71-17.23-7.71-28.24l-7.85-28.2-2.37-8.54c-.26-1-.47-1.76-.63-2.33A5.37,5.37,0,0,1,66.48,269.76Z" style="fill:#263238"></path><path d="M105.55,153.65a6.13,6.13,0,0,1,5.65-5.58c-1.7-2.79-.28-6.82,2.61-8.35a8.22,8.22,0,0,1,9.09,1.44,6.3,6.3,0,0,1,11.69,3.47c2.65-.85,5.65,1.33,6.17,4.07a7.41,7.41,0,0,1-3.29,7.17c1.35,1,1.21,3.26.11,4.55a7.55,7.55,0,0,1-4.52,2.13l-10.54,3.13c-2.53,1.41-5.64,2.13-8.34,1.09s-4.65-4.23-3.63-6.94A6.14,6.14,0,0,1,105.55,153.65Z" style="fill:#263238"></path><path d="M105.64,152.46a2,2,0,0,1,.37-.35,4.25,4.25,0,0,1,1.33-.67,4.9,4.9,0,0,1,2.36-.1,4.54,4.54,0,0,1,2.71,1.6l-.31.1a6.25,6.25,0,0,1,1.66-3.83,8,8,0,0,1,4.23-2.44,9.36,9.36,0,0,1,5.41.61,13.61,13.61,0,0,1,4.8,3.41,6.58,6.58,0,0,1,1.48,2.51,3.36,3.36,0,0,1-.43,2.83,2.6,2.6,0,0,1-1.09,1,2.11,2.11,0,0,1-1.44.12,2.69,2.69,0,0,1-1.86-1.91,3.13,3.13,0,0,1,.47-2.48,4.1,4.1,0,0,1,1.83-1.51,7.24,7.24,0,0,1,4.12-.34,9.35,9.35,0,0,1,5.17,2.84,7.79,7.79,0,0,1,1,1.29,2,2,0,0,1,.25.5,16.81,16.81,0,0,0-1.37-1.65,9.49,9.49,0,0,0-5.09-2.62,7,7,0,0,0-3.89.37,3.59,3.59,0,0,0-1.61,1.36,2.7,2.7,0,0,0-.4,2.12,2.24,2.24,0,0,0,1.52,1.55,1.85,1.85,0,0,0,2-.88,2.84,2.84,0,0,0,.35-2.41,6.13,6.13,0,0,0-1.37-2.3c-2.61-2.89-6.43-4.58-9.73-3.9a7.59,7.59,0,0,0-4,2.25,5.93,5.93,0,0,0-1.62,3.57l0,.46-.28-.36a4.25,4.25,0,0,0-2.49-1.55,4.82,4.82,0,0,0-2.25,0A6,6,0,0,0,105.64,152.46Z" style="fill:#455a64"></path><path d="M115.43,163.34a.76.76,0,0,1-.11.26,2.12,2.12,0,0,1-.54.63,2.83,2.83,0,0,1-1.22.56,2.6,2.6,0,0,1-1.8-.31l-1-.59,1.08.33,1.14.34,1.42.43-1.48-.11a2.86,2.86,0,0,1-1.79-4.87l.34.28a6.17,6.17,0,0,1-10.92-1.81,5.81,5.81,0,0,1,.43-4.86,3.11,3.11,0,0,1,4.21-1.23l-.29.39a4.38,4.38,0,0,1-1.47-3,4.81,4.81,0,0,1,.67-2.95,3.85,3.85,0,0,1,2.1-1.67,4.53,4.53,0,0,1,2.29-.13,4.6,4.6,0,0,1,2.73,1.61,2.73,2.73,0,0,1,.53,1s-.18-.36-.65-.9a4.54,4.54,0,0,0-2.67-1.42,4.31,4.31,0,0,0-2.11.17,3.57,3.57,0,0,0-1.88,1.55,4.53,4.53,0,0,0-.57,2.7,4,4,0,0,0,1.34,2.66l-.29.38a2.63,2.63,0,0,0-3.51,1.1,5.34,5.34,0,0,0-.36,4.42,5.73,5.73,0,0,0,4.86,4,5.8,5.8,0,0,0,5.2-2.3l.33.28a2.52,2.52,0,0,0-.51,2.78,2.56,2.56,0,0,0,2,1.45l-.07.32-1.13-.38.13-.26a2.27,2.27,0,0,0,1.6.33,2.73,2.73,0,0,0,1.17-.45A4.22,4.22,0,0,0,115.43,163.34Z" style="fill:#263238"></path><path d="M145.33,157.14a12.19,12.19,0,0,0,.89-1.31,6.17,6.17,0,0,0,.62-4.11,5.78,5.78,0,0,0-5.84-4.51,1.89,1.89,0,0,0-1.52.65.82.82,0,0,0,.28,1.31,2.48,2.48,0,0,0,1.82-.14,4.88,4.88,0,0,0,2.73-2.62,4,4,0,0,0-.26-3.46A5.88,5.88,0,0,0,138.9,140a6.25,6.25,0,0,0-3.92,1.42c-.78.65-1.08,1.15-1.12,1.11s0-.13.2-.36a5.37,5.37,0,0,1,.79-.9,6.21,6.21,0,0,1,4.05-1.64,6.41,6.41,0,0,1,3,.67,5.91,5.91,0,0,1,2.58,2.41,4.44,4.44,0,0,1,.31,3.89,5.3,5.3,0,0,1-3,2.9,3,3,0,0,1-2.22.14,1.29,1.29,0,0,1-.77-.94,1.51,1.51,0,0,1,.28-1.14,2.39,2.39,0,0,1,1.91-.86,6.17,6.17,0,0,1,6.23,4.94,6.08,6.08,0,0,1-.81,4.28,5.27,5.27,0,0,1-.73.95A1.76,1.76,0,0,1,145.33,157.14Z" style="fill:#263238"></path><path d="M113.65,165.57c1.19-2.27,4.46-2.56,6.82-1.55a4.64,4.64,0,0,1,7.2-4.41c.56.38,1.12.91,1.8.86s1.2-.7,1.71-1.19a4.7,4.7,0,1,1,6,7.19l-.32-1.25a26.65,26.65,0,0,1-14.44,7,10.15,10.15,0,0,1-6.66-.84C113.81,170.24,112.59,167.59,113.65,165.57Z" style="fill:#FF725E"></path><path d="M107.86,185.63a8.47,8.47,0,0,1,.38-9.78,8.11,8.11,0,0,1,3.23-2.38,10.24,10.24,0,0,1,2.32-5.89c2.1-2.35,6.13-3.12,8.43-1a7.66,7.66,0,0,1,10.51-3.22c3-3.56,9.43-3.33,12.21.43a5.67,5.67,0,0,1,8.79,5.57,6.19,6.19,0,0,1,6.79,8.32,4.57,4.57,0,0,1,2.71,8,6.5,6.5,0,0,1-1.38,9.37,5.41,5.41,0,0,1-3.61,6.23l-37.81,11.24c-6.35-.45-8.07-4.58-8.33-8.42a5.82,5.82,0,0,1-3.19-8.25,6.51,6.51,0,0,1-1-10.29Z" style="fill:#263238"></path><path d="M122.62,177.11,145.81,172c7.4-.56,12,8.66,12.29,16.07.28,8.24.29,18.3-.86,24.41C154.92,224.72,145.42,226,145.42,226s0,.18-.21,3.84l-.17,6a10.3,10.3,0,0,1-2.46,6.56c-3.65,4.12-9.8,4.28-16.82,1.12-4.07-1.83-3.82-4.14-4.32-9.82L118.14,180A6.42,6.42,0,0,1,122.62,177.11Z" style="fill:#c17560"></path><path d="M153.26,199.15a1.58,1.58,0,0,1-1.58,1.55,1.49,1.49,0,0,1-1.58-1.47,1.58,1.58,0,0,1,1.57-1.55A1.52,1.52,0,0,1,153.26,199.15Z" style="fill:#263238"></path><path d="M155.21,194.35c-.2.2-1.38-.72-3.08-.76s-3,.77-3.15.55.12-.46.68-.84a4.35,4.35,0,0,1,2.53-.7,4.15,4.15,0,0,1,2.44.87C155.14,193.89,155.31,194.26,155.21,194.35Z" style="fill:#263238"></path><path d="M138.47,198.67a1.58,1.58,0,0,1-1.57,1.55,1.52,1.52,0,0,1-1.59-1.47,1.59,1.59,0,0,1,1.57-1.56A1.51,1.51,0,0,1,138.47,198.67Z" style="fill:#263238"></path><path d="M139.11,194.35c-.2.2-1.37-.72-3.07-.76s-3,.77-3.16.55.12-.46.68-.84a4.37,4.37,0,0,1,2.53-.7,4.15,4.15,0,0,1,2.44.87C139,193.89,139.21,194.26,139.11,194.35Z" style="fill:#263238"></path><path d="M143.92,205.76a11.17,11.17,0,0,1,2.78-.42c.44,0,.85-.1.93-.4a2.21,2.21,0,0,0-.25-1.3c-.38-1.06-.77-2.18-1.19-3.34-1.65-4.77-2.83-8.68-2.63-8.74s1.68,3.74,3.33,8.5c.39,1.18.77,2.3,1.13,3.37a2.52,2.52,0,0,1,.18,1.71,1.11,1.11,0,0,1-.74.62,3.47,3.47,0,0,1-.74.08A11,11,0,0,1,143.92,205.76Z" style="fill:#263238"></path><path d="M145.47,226a31.29,31.29,0,0,1-16.39-4.89s3.83,8.75,16.21,8Z" style="fill:#6f4439"></path><path d="M138.16,209.15a2.45,2.45,0,0,1,2.08-1.05,3.18,3.18,0,0,1,2.88,1.53,1.92,1.92,0,0,1,.09,1.44c-.11.25,0,.13-.22.29a5.68,5.68,0,0,1-2.34,1.36,2.43,2.43,0,0,1-2.52-1A2.48,2.48,0,0,1,138.16,209.15Z" style="fill:#6f4439"></path><path d="M138.57,206.84c.28,0,.24,1.84,1.79,3.19s3.52,1.19,3.53,1.45-.45.35-1.28.35a4.61,4.61,0,0,1-3-1.1,4,4,0,0,1-1.38-2.67C138.23,207.28,138.44,206.83,138.57,206.84Z" style="fill:#263238"></path><path d="M139.36,186.93c-.15.47-1.86.3-3.85.6s-3.59.88-3.87.48c-.12-.2.15-.64.79-1.11a6.56,6.56,0,0,1,2.84-1.09,6.64,6.64,0,0,1,3,.27C139.05,186.36,139.43,186.71,139.36,186.93Z" style="fill:#263238"></path><path d="M154.87,188.28c-.35.37-1.64-.1-3.21-.21s-2.92.1-3.21-.32c-.12-.2.11-.58.71-.91a4.88,4.88,0,0,1,2.65-.49,4.8,4.8,0,0,1,2.53.92C154.87,187.69,155,188.1,154.87,188.28Z" style="fill:#263238"></path><path d="M146,170.64a2.51,2.51,0,0,1,0,.27l0,0Z" style="fill:#263238"></path><path d="M121.42,199.11a1.6,1.6,0,0,0-1.27-1.67c-2-.43-5.52-.43-5.87,4.58-.49,6.93,6.57,6,6.6,5.79S121.26,201.76,121.42,199.11Z" style="fill:#c17560"></path><path d="M119,205s-.13.07-.34.15a1.21,1.21,0,0,1-.91,0,3,3,0,0,1-1.19-2.78,3.91,3.91,0,0,1,.46-1.71,1.39,1.39,0,0,1,1-.86.62.62,0,0,1,.69.38c.08.2,0,.34.06.35s.16-.11.12-.4a.8.8,0,0,0-.24-.45.9.9,0,0,0-.65-.22,1.71,1.71,0,0,0-1.34,1,4.07,4.07,0,0,0-.56,1.91c0,1.4.57,2.76,1.56,3.12a1.28,1.28,0,0,0,1.11-.11C118.92,205.2,119,205.05,119,205Z" style="fill:#6f4439"></path><path d="M160.54,192.13a4.31,4.31,0,0,1-4.3-5.19,4.49,4.49,0,0,1-4.42-5.69,5.58,5.58,0,0,1-7.89-3.75,1.6,1.6,0,0,1-.87,1.34,3,3,0,0,1-1.64.29,5.22,5.22,0,0,1-4.31-3,4.69,4.69,0,0,1-5.72,1.84c-.74-.32-1.45-1-1.33-1.8a2.1,2.1,0,0,1,.36-.79c2.11-3.19,5.94-5,9.74-5.28a27.64,27.64,0,0,1,11.24,1.81,14.83,14.83,0,0,1,5.88,3.18c1.71,1.7,2.59,4,3.42,6.33a28,28,0,0,1,1.49,5.06,9.19,9.19,0,0,1-.53,5.19l-.48,0" style="fill:#263238"></path><path d="M131.39,176a6.53,6.53,0,0,1-5.37,6.2,3.23,3.23,0,0,1-1.78,6.19,7.82,7.82,0,0,1,.81,3.15,2.7,2.7,0,0,1-1.68,2.56,3.08,3.08,0,0,1,.79,2.73,2.56,2.56,0,0,1-2.52,2c-1,0-1.85-1.26-2.86-1.45a4.9,4.9,0,0,0-4.25,1.29l-1.27-12.93,1.56-10.37,6.06-4.42L132.54,173Z" style="fill:#263238"></path><path d="M112,176.36a9.09,9.09,0,0,0,1.23-.14,3.36,3.36,0,0,0,2.31-2l.29-.77.11.82a4,4,0,0,0,1.49,2.54,3.7,3.7,0,0,0,3.28.65,3.86,3.86,0,0,0,1.92-1.16l.23-.26.18.29a5.43,5.43,0,0,0,2.65,2.12,5.34,5.34,0,0,0,2.74.25,8.39,8.39,0,0,0,2.37-.91s-.14.21-.52.47a5.18,5.18,0,0,1-1.79.76,5.37,5.37,0,0,1-2.94-.15,5.71,5.71,0,0,1-2.94-2.27l.41,0a4.38,4.38,0,0,1-2.17,1.34,4.18,4.18,0,0,1-3.73-.78,4.35,4.35,0,0,1-1.59-2.87l.4.05a3.52,3.52,0,0,1-2.65,2.12A2.06,2.06,0,0,1,112,176.36Z" style="fill:#455a64"></path><path d="M130.15,162.79a24.06,24.06,0,0,0-2.57,1.4,5.4,5.4,0,0,0-1.9,2.39,3.32,3.32,0,0,0,.54,3.43,2.53,2.53,0,0,0,1,.7l.31.11-.18.28a3.25,3.25,0,0,0,0,3.07,5.94,5.94,0,0,0,1.7,2c1.22.94,2.07,1.4,2,1.48s-.24-.06-.63-.26a10.48,10.48,0,0,1-1.61-1,5.7,5.7,0,0,1-1.9-2.12,3.67,3.67,0,0,1,0-3.55l.13.39a3.08,3.08,0,0,1-1.22-.84,3.73,3.73,0,0,1-.6-4,5.48,5.48,0,0,1,2.13-2.52,8,8,0,0,1,2-.93C129.85,162.8,130.14,162.75,130.15,162.79Z" style="fill:#455a64"></path><path d="M167.78,204.19s-.07.06-.24.13a3.37,3.37,0,0,1-.77.18,4,4,0,0,1-2.76-.82,3.92,3.92,0,0,1,.18-6.16,2.46,2.46,0,0,1,1.37-.48,1.75,1.75,0,0,1,1.39.67,1.5,1.5,0,0,1,.09,1.55,2.54,2.54,0,0,1-1,1.05,3.65,3.65,0,0,1-2.59.34,4.39,4.39,0,0,1-3.19-2.79A5.64,5.64,0,0,1,160,195a2.47,2.47,0,0,1,.31-1s-.06.37-.11,1a5.91,5.91,0,0,0,.41,2.71,4.36,4.36,0,0,0,1.07,1.52,4.13,4.13,0,0,0,1.88.94,3.22,3.22,0,0,0,2.23-.31c.66-.36,1.2-1.25.75-1.85a1.22,1.22,0,0,0-1-.46,1.89,1.89,0,0,0-1.08.38,3.39,3.39,0,0,0-1.29,1.86,3.45,3.45,0,0,0,1.05,3.6,3.87,3.87,0,0,0,2.52.89C167.42,204.29,167.77,204.14,167.78,204.19Z" style="fill:#263238"></path><path d="M113.22,195.47a2.55,2.55,0,0,1-.9.48,7.59,7.59,0,0,1-2.73.47,11.05,11.05,0,0,1-4.06-.75,3.13,3.13,0,0,1-1.77-1.81,2,2,0,0,1,0-1.42,1.88,1.88,0,0,1,1.07-1,1.42,1.42,0,0,1,.91,0l-.18.48a4.22,4.22,0,0,1-2.27-4.14,3.62,3.62,0,0,1,.8-2,4.15,4.15,0,0,1,4.06-1.38,1.88,1.88,0,0,1,.87.4s-.32-.11-.91-.2a4,4,0,0,0-2.39.39,3.39,3.39,0,0,0-2,2.82,3.79,3.79,0,0,0,2,3.63l-.19.48a1,1,0,0,0-.59,0,1.41,1.41,0,0,0-.77.73,1.54,1.54,0,0,0,0,1.06,2.64,2.64,0,0,0,1.49,1.53,11,11,0,0,0,3.86.82A10.32,10.32,0,0,0,113.22,195.47Z" style="fill:#263238"></path><path d="M160.88,288.33c.31.47,11.47,15.46,11.47,15.46l13.51-12.54-8.65-21.77L172,260.61Z" style="fill:#c17560"></path><g style="opacity:0.30000000000000004"><polygon points="116.94 422.9 111.31 422.79 109.31 373.84 97.07 368.64 119.31 354.95 178.6 396.87 190.44 422.9 116.94 422.9"></polygon></g><path d="M156,406.08s10.46,19.82,10.46,19.82L182,417.25l-6.83-21.6Z" style="fill:#c17560"></path><path d="M164.71,423.21s16,.49,16.32-9.82l.86,2.08,23.86,15.68c3.79,2.7,3.49,5.79,2.49,7.38a3.62,3.62,0,0,1-3.52,1.67c-7.42-.94-34.71-4.56-36.08-6.76l-1.42-1.92c-2.28-2.69-3-6-2.26-7.2Z" style="fill:#263238"></path><g style="opacity:0.6000000000000001"><path d="M207.83,439.06l-40.61-7.54.89,1.2c.85,1.4,1.8,1.49,3,1.88,3.67,1.13,12.85,2.94,33.48,5.67a3.62,3.62,0,0,0,3.2-1.21Z" style="fill:#fff"></path></g><g style="opacity:0.6000000000000001"><path d="M170.06,426.36a2.19,2.19,0,0,1,2.19,1.94,2.11,2.11,0,0,1-1.91,2.19,2.31,2.31,0,0,1-2.3-2.08,2.19,2.19,0,0,1,2.23-2.05" style="fill:#fff"></path></g><path d="M188.86,429.55c.22,0-.24-2,.86-4.06s2.9-2.85,2.81-3.05-.55,0-1.29.36a5.77,5.77,0,0,0-2.83,5.49C188.51,429.12,188.77,429.58,188.86,429.55Z" style="fill:#fff"></path><path d="M193.39,431.25c.23,0,.46-1.58,1.61-3.09s2.6-2.2,2.52-2.41-1.85.2-3.14,1.94S193.19,431.28,193.39,431.25Z" style="fill:#fff"></path><path d="M183.73,427.67c.2,0,.5-2.1,1.88-4.28s3.14-3.39,3-3.56-2.15.85-3.6,3.21S183.56,427.69,183.73,427.67Z" style="fill:#fff"></path><path d="M184.29,421.36s-.27-.41-.95-.94a9.29,9.29,0,0,0-3.28-1.62,4.15,4.15,0,0,0-2.65-.06,1.47,1.47,0,0,0-.89,1.42,2.38,2.38,0,0,0,.79,1.5,5.11,5.11,0,0,0,6.53,0,5.92,5.92,0,0,0,1.72-6.38,2.06,2.06,0,0,0-1.19-1.25,1.43,1.43,0,0,0-1.57.58,5,5,0,0,0-.71,2.53,10.24,10.24,0,0,0,.36,3.64A3.15,3.15,0,0,0,183,422a16.3,16.3,0,0,1-.33-4.82,4.68,4.68,0,0,1,.67-2.19.77.77,0,0,1,.85-.32,1.42,1.42,0,0,1,.73.87,5.3,5.3,0,0,1-1.55,5.52,4.45,4.45,0,0,1-5.54.11,1.72,1.72,0,0,1-.59-1,.77.77,0,0,1,.47-.79,3.65,3.65,0,0,1,2.24,0A14.11,14.11,0,0,1,184.29,421.36Z" style="fill:#fff"></path><path d="M122.31,432.12c.08,0,.19,24.43.19,24.43s16.93,2.65,16.93,2.22,5-23.77,5-23.77Z" style="fill:#c17560"></path><path d="M140.8,452s-12.31,9.28-18.34.91l-.23,2.23-11.08,26.32c-1.65,4.36.32,6.76,2,7.52a3.62,3.62,0,0,0,3.86-.57c5.63-4.92,26.27-23.13,26.19-25.72l.11-2.39c.39-3.5-.83-6.66-2.13-7.23Z" style="fill:#263238"></path><g style="opacity:0.6000000000000001"><path d="M113.83,489.17l29.52-28.89-.07,1.5c.07,1.63-.66,2.24-1.48,3.25-2.41,3-9,9.61-24.64,23.36a3.61,3.61,0,0,1-3.33.78Z" style="fill:#fff"></path></g><g style="opacity:0.6000000000000001"><path d="M138.12,457.58a2.19,2.19,0,0,0-.74,2.83,2.11,2.11,0,0,0,2.8.76,2.31,2.31,0,0,0,.76-3,2.19,2.19,0,0,0-3-.46" style="fill:#fff"></path></g><path d="M124.28,470.71c-.2.08-.91-1.8-3-2.9s-4-.75-4-1,.43-.34,1.26-.42a5.8,5.8,0,0,1,5.42,3C124.34,470.16,124.37,470.68,124.28,470.71Z" style="fill:#fff"></path><path d="M121.46,474.64c-.17.14-1.25-1.06-3-1.67s-3.39-.38-3.43-.6,1.64-.86,3.68-.13S121.65,474.55,121.46,474.64Z" style="fill:#fff"></path><path d="M127.5,466.29c-.15.14-1.59-1.47-4-2.51s-4.5-1.07-4.49-1.27,2.25-.49,4.77.66S127.65,466.21,127.5,466.29Z" style="fill:#fff"></path><path d="M123.52,461.36a3.22,3.22,0,0,1,.26-1.32,9.37,9.37,0,0,1,1.82-3.17,4.18,4.18,0,0,1,2.17-1.52,1.46,1.46,0,0,1,1.53.69,2.35,2.35,0,0,1,.18,1.68,5.13,5.13,0,0,1-5.44,3.61,6,6,0,0,1-5-4.35,2.07,2.07,0,0,1,.29-1.69,1.43,1.43,0,0,1,1.63-.4,5.11,5.11,0,0,1,2,1.7,10.23,10.23,0,0,1,1.73,3.23,3,3,0,0,1,.25,1.31,16.11,16.11,0,0,0-2.4-4.19,4.77,4.77,0,0,0-1.78-1.44.76.76,0,0,0-.89.21,1.42,1.42,0,0,0-.13,1.12,5.3,5.3,0,0,0,4.37,3.72,4.46,4.46,0,0,0,4.67-3,1.79,1.79,0,0,0-.08-1.18.79.79,0,0,0-.84-.39,3.7,3.7,0,0,0-1.86,1.25A13.8,13.8,0,0,0,123.52,461.36Z" style="fill:#fff"></path><path d="M100.15,238.84l21.11-8.12s5.32,9.19,14.7,8.39c9.59-.82,9.28-7.82,9.28-7.82l26.53,7.53s1.75,35.87,0,41.47-6.72,12.9-6.72,12.9,5.25,12.19,5.38,15.55-1.34,2.52-1.34,2.52l-64,.77Z" style="fill:#FF725E"></path><g style="opacity:0.30000000000000004"><path d="M156.45,275.6c-.82-.74-2.11-.25-3.09.28-5.51,3-11,6-16.27,9.42-6.61,4.35-12.7,9.42-19.17,14q-5.72,4-11.79,7.51l-1.37,2.39c1.45,2.37,4.47,3.44,7.24,3.23a17.27,17.27,0,0,0,7.69-3c10.87-6.88,18.52-18,29.38-24.89,2.69-1.7,5.68-3.25,7.31-6C156.93,277.62,157.23,276.31,156.45,275.6Z"></path></g><path d="M158.92,292.59a17.28,17.28,0,0,1-2.64.14c-1.62,0-3.87.12-6.34.3s-4.71.45-6.32.65a14.51,14.51,0,0,1-2.63.25,11.77,11.77,0,0,1,2.57-.62,64.6,64.6,0,0,1,12.72-.95A11.4,11.4,0,0,1,158.92,292.59Z" style="fill:#263238"></path><path d="M90.54,282.29s5.91,16.68,8.53,20.93,3.74,9.73,12.13,7.5S123.85,303,133,295.49s15.09-13.2,15.09-13.2l-6.46-7.82-26.76,12.2-6.38-14Z" style="fill:#c17560"></path><path d="M171.47,257.25,153.08,267,138,276.53s7.47,6.62,9.58,6.46,5-3.08,5-3.08a2.19,2.19,0,0,0,1.24,1.19c.92.32,2-.76,2-.76a6.47,6.47,0,0,0,2,.43c.92,0,2-3.52,2.53-5.84a4.13,4.13,0,0,0-.37-3.45l.72-.41,1,1.77-1.57,5.61c-.83,3.08,2.15,2.66,2.15,2.66s3.27-5.69,3.6-8.92-2.89-5.3-2.89-5.3,6.8-5.85,8.47-7S171.47,257.25,171.47,257.25Z" style="fill:#c17560"></path><path d="M112.67,298.92a5,5,0,0,1-.6-1.85,12.2,12.2,0,0,1,1.92-9,4.66,4.66,0,0,1,1.3-1.43,18.42,18.42,0,0,0-2.63,5.85A18.8,18.8,0,0,0,112.67,298.92Z" style="fill:#6f4439"></path><path d="M101.24,238.42s-11.83,3.49-14.11,16C85.77,261.81,89.06,286,89.06,286l22.85-8.5Z" style="fill:#FF725E"></path><path d="M105.08,255a24.84,24.84,0,0,1,.9,3.36c.54,2.23,1.22,5.05,2,8.17s1.52,6.06,2.1,8.13a32.06,32.06,0,0,1,.9,3.35,3.44,3.44,0,0,1-.4-.84c-.23-.56-.52-1.39-.86-2.41-.67-2.05-1.46-4.92-2.24-8.11s-1.4-6.1-1.82-8.21A21.42,21.42,0,0,1,105.08,255Z" style="fill:#263238"></path><path d="M105.77,312S90.67,329.73,91,344a53.7,53.7,0,0,0,6.74,24.62l20,1.18s1.77-9.55,8.93-9.55c1.55,0,27.65,50,27.65,50l25.57-11.69S163.12,354.4,159,344s-8-15.39-13.47-16.87l-6.12-15.5Z" style="fill:#263238"></path><path d="M110,329.14c0,.09-.94-.17-2.46-.29a14.84,14.84,0,0,0-5.82.7,12.78,12.78,0,0,0-5,3c-1.07,1.07-1.57,1.89-1.65,1.83s.07-.23.29-.6a8.84,8.84,0,0,1,1.09-1.49,11.93,11.93,0,0,1,5.08-3.28,13.47,13.47,0,0,1,6-.56A6.55,6.55,0,0,1,110,329.14Z" style="fill:#455a64"></path><path d="M134.48,325.42a44.48,44.48,0,0,1-.26-6.86,44.48,44.48,0,0,1,.26-6.86,46,46,0,0,1,.26,6.86A46,46,0,0,1,134.48,325.42Z" style="fill:#455a64"></path><path d="M116.84,311.65a2.38,2.38,0,0,1-.26.8,12.42,12.42,0,0,1-1.11,2,15.17,15.17,0,0,1-12.94,6.78,12.86,12.86,0,0,1-2.28-.23,2.41,2.41,0,0,1-.81-.24c0-.09,1.19.15,3.09.11a16,16,0,0,0,12.64-6.63C116.3,312.71,116.76,311.61,116.84,311.65Z" style="fill:#455a64"></path><path d="M169.63,311.26a41.32,41.32,0,0,1,10.31,20.58c2.07,12.39,2.2,28.55-1.33,34.53l-10.1,2.27-8.89,9L147,446.2l-28.58-3.93s-2.68-59.56-1.76-65.23,1.1-7.22,1.1-7.22-.64-9.34,6.11-16.09a166.81,166.81,0,0,1,16.4-13.8l-.88-28.28Z" style="fill:#263238"></path><path d="M175.88,321a4,4,0,0,1-.94.39,15,15,0,0,1-2.69.6,15.18,15.18,0,0,1-8.92-1.44,11.78,11.78,0,0,1-2.16-1.49c-.64-.54-1.24-1.08-1.8-1.61a36.67,36.67,0,0,1-2.76-3c-.75-.89-1.32-1.64-1.71-2.15a3.64,3.64,0,0,1-.56-.84,33,33,0,0,1,2.54,2.74c.78.86,1.71,1.86,2.82,2.9a20.23,20.23,0,0,0,3.88,3,15.73,15.73,0,0,0,8.63,1.54C174.49,321.41,175.85,320.89,175.88,321Z" style="fill:#455a64"></path><path d="M117.79,369.82s0-.33.15-1a7.15,7.15,0,0,1,.28-1.17,9.08,9.08,0,0,1,.58-1.57,9.73,9.73,0,0,1,2.84-3.69,11.34,11.34,0,0,1,5.88-2.38h.08l0,.08c5.92,11,15.45,28.7,27,50l-.32-.1,25.56-11.71-.13.33c-1.31-3.33-2.69-6.86-4.1-10.44L161.82,353c-2.14-5.48-4.2-10.73-6.14-15.71a16,16,0,0,0-4.19-6.35,14.57,14.57,0,0,0-6.23-3.43h0a52.17,52.17,0,0,0-16.88-2,53.32,53.32,0,0,0-12.77,2.11,55.69,55.69,0,0,0-7.7,2.92c-.85.4-1.49.75-1.92,1l-.67.32s.21-.14.64-.37,1-.59,1.9-1a50.77,50.77,0,0,1,7.69-3,52.76,52.76,0,0,1,29.82-.28h0a15,15,0,0,1,6.45,3.51,16.5,16.5,0,0,1,4.32,6.5c2,5,4,10.23,6.18,15.7,4.3,11,8.95,22.82,13.81,35.19,1.4,3.58,2.79,7.11,4.09,10.44l.09.23-.22.1-25.58,11.68-.21.09-.1-.2c-11.41-21.38-20.88-39.14-26.75-50.15l.12.07a11.15,11.15,0,0,0-5.76,2.28,9.69,9.69,0,0,0-2.85,3.59,8.78,8.78,0,0,0-.6,1.54,6.35,6.35,0,0,0-.31,1.16C117.87,369.5,117.79,369.82,117.79,369.82Z" style="fill:#455a64"></path><path d="M175.88,332.82c-.06.09-1.16-.69-3.13-1.53a21.77,21.77,0,0,0-3.57-1.15,23.7,23.7,0,0,0-4.56-.52,23.14,23.14,0,0,0-4.56.47,20.08,20.08,0,0,0-3.58,1.1c-2,.82-3.09,1.58-3.15,1.49a4,4,0,0,1,.75-.58,9.45,9.45,0,0,1,.94-.58c.38-.2.81-.46,1.31-.67a18.94,18.94,0,0,1,3.63-1.23,20.06,20.06,0,0,1,9.33.06A18.59,18.59,0,0,1,172.9,331a12.81,12.81,0,0,1,1.3.69,7.83,7.83,0,0,1,.94.59A4.4,4.4,0,0,1,175.88,332.82Z" style="fill:#455a64"></path><g style="opacity:0.30000000000000004"><path d="M127.52,360.17s7.57,32.33,15.82,41.38S153.8,412.5,153.8,412.5l.57-2.23Z"></path></g><path d="M172.15,303.52s.83-5,3.29-7.89a55.49,55.49,0,0,1,7-6.24h1.26l3.32-7.45,9.33-.45s-2,18.18-6.48,23.71-9.06,5.24-11,4.68S172.15,303.52,172.15,303.52Z" style="fill:#c17560"></path><path d="M156.07,233.31l-7.37,36.33a3.24,3.24,0,0,0,3.17,3.87h50.66a3.24,3.24,0,0,0,3.15-2.53l8.14-36.33a3.23,3.23,0,0,0-3.15-3.93H159.23A3.21,3.21,0,0,0,156.07,233.31Z" style="fill:#263238"></path><path d="M156.07,233.31a1.72,1.72,0,0,1,.11-.5,3.21,3.21,0,0,1,.81-1.26,3.31,3.31,0,0,1,2.24-.91l3.3,0,21.08-.09,14.55,0h12.35A3.51,3.51,0,0,1,214,233a4.29,4.29,0,0,1-.1,2.31c-.16.72-.32,1.45-.49,2.19-.32,1.47-.66,3-1,4.46-.67,3-1.36,6.07-2.05,9.19l-4.33,19.34a5.24,5.24,0,0,1-.38,1.27,3.27,3.27,0,0,1-.82,1.09,3.55,3.55,0,0,1-2.49.9H169.14l-16.7,0a4.29,4.29,0,0,1-2-.31,3.4,3.4,0,0,1-1.5-1.33,3.3,3.3,0,0,1-.51-1.9,16.36,16.36,0,0,1,.32-1.84l1.41-6.84c1.79-8.7,3.25-15.75,4.26-20.64.51-2.42.91-4.3,1.19-5.61.14-.62.24-1.1.32-1.45a3.8,3.8,0,0,1,.13-.49s0,.17-.08.5-.15.84-.27,1.46c-.25,1.31-.62,3.2-1.09,5.63-1,4.9-2.37,12-4.1,20.67-.44,2.18-.9,4.47-1.37,6.85a14.63,14.63,0,0,0-.31,1.77,3,3,0,0,0,1.77,2.83,3.78,3.78,0,0,0,1.82.27l16.7,0,18.46,0h14.76a3,3,0,0,0,2.15-.77,2.86,2.86,0,0,0,.69-.92,5.62,5.62,0,0,0,.34-1.16c1.49-6.62,2.94-13.09,4.34-19.34.7-3.12,1.39-6.19,2.06-9.19.34-1.5.68-3,1-4.46.16-.73.33-1.46.49-2.19a3.68,3.68,0,0,0,.1-2.07,3,3,0,0,0-3-2.2h-4.24l-8.11,0-14.55,0-21.08-.08-3.3,0a3.17,3.17,0,0,0-2.17.83A3.43,3.43,0,0,0,156.07,233.31Z" style="fill:#455a64"></path><path d="M186.23,249.87s6.11,10.4,6.74,11.78,2.46,3.5,2.58,4.81,1.58,8.8,1.45,11.51a20.34,20.34,0,0,1-1.62,6.06l-8.4-2.09a13.51,13.51,0,0,1-3.13-4.28,9.73,9.73,0,0,0-3.23-4.35c-1.07-.82-5.29-3.47-5.79-4.43a2,2,0,0,1,0-2.05s-2-.94-2.28-2,0-2.71,2.21-1.7,10.33,6.81,11.15,6.18-.19-2.16-.19-2.16-8.63-7.86-9.07-9.25.82-3.34,2.83-1.64,8.64,8.38,9.33,8.38-.06-1.95-.06-1.95-3.4-7.31-4-9.26S184.53,248.86,186.23,249.87Z" style="fill:#c17560"></path><path d="M214.2,232.86l-.25,0-.72,0-2.79.05-10.25.08-33.8.08H161.5a2.54,2.54,0,0,0-2,.67,2.33,2.33,0,0,0-.58.88c-.1.32-.17.75-.26,1.11-.69,3-1.33,6-1.93,8.77-1.18,5.58-2.24,10.62-3.13,14.87s-1.68,7.64-2.24,10c-.28,1.14-.51,2-.67,2.7l-.19.7a.75.75,0,0,1-.08.24.79.79,0,0,1,0-.25c0-.19.08-.42.14-.71l.57-2.73,2.08-10c.86-4.25,1.88-9.3,3-14.89.58-2.8,1.21-5.74,1.9-8.78.1-.39.14-.74.28-1.17a2.76,2.76,0,0,1,.7-1.08,3.08,3.08,0,0,1,2.38-.82h4.89l33.8.08,10.25.08,2.79.05.72,0A.87.87,0,0,1,214.2,232.86Z" style="fill:#455a64"></path><path d="M173.37,296.91a2.73,2.73,0,0,1,.26-.82,10.82,10.82,0,0,1,1.17-2,11.57,11.57,0,0,1,6.27-4.34,11,11,0,0,1,2.29-.35l-.2.12c1.14-2.08,2-4.06,2.7-5.4a21.72,21.72,0,0,1,1.12-2.16,9.86,9.86,0,0,1-.82,2.3c-.61,1.4-1.4,3.34-2.57,5.54l-.06.1h-.15a11.32,11.32,0,0,0-2.18.34,12,12,0,0,0-6.11,4.07C173.89,295.8,173.46,297,173.37,296.91Z" style="fill:#6f4439"></path><path d="M184.24,272.44a28,28,0,0,1-4.81-2.62,27.67,27.67,0,0,1-4.53-3.07,28.7,28.7,0,0,1,4.8,2.63A29.84,29.84,0,0,1,184.24,272.44Z" style="fill:#6f4439"></path><path d="M187,241.63a1.67,1.67,0,1,1-1-2.28A1.78,1.78,0,0,1,187,241.63Z" style="fill:#e0e0e0"></path><path d="M112,201.84a2.85,2.85,0,0,1-.55-1,6,6,0,0,1-.24-3.14,5.83,5.83,0,0,1,2.61-3.84,6.18,6.18,0,0,1,2.65-.94A4,4,0,0,1,118,193a1.6,1.6,0,0,1,1.2,1.17,1.18,1.18,0,0,1-.18.9,1.77,1.77,0,0,1-.65.57,2.5,2.5,0,0,1-1.56.22,2.9,2.9,0,0,1-2-4.34A3.42,3.42,0,0,1,116.4,190a3.74,3.74,0,0,1,3.13.25,2.27,2.27,0,0,1,.88.75s-.32-.26-1-.57a3.59,3.59,0,0,0-2.89-.09,3,3,0,0,0-1.42,1.37,2.65,2.65,0,0,0-.13,2.19,2.57,2.57,0,0,0,1.88,1.45,2,2,0,0,0,1.24-.18.89.89,0,0,0,.56-.91,1.12,1.12,0,0,0-.83-.78,4,4,0,0,0-1.34-.06,5.78,5.78,0,0,0-2.44.85,5.48,5.48,0,0,0-2.51,3.51,6.33,6.33,0,0,0,.07,3C111.84,201.46,112,201.82,112,201.84Z" style="fill:#263238"></path></g></svg>